<!-- Generated by IcoMoon.io -->
<svg version="1.1" xmlns="http://www.w3.org/2000/svg" width="32" height="32" viewBox="0 0 32 32">
<path fill="#444" d="M27.5 13.969q0.938-0.813 1.5-2.281l0.156-1.031q0.031-2.563-2.469-3.906-1.031-0.5-2.188-0.531-2.281 0-3.906 2.125-0.5 0.406-0.938 0.063-0.469-0.344-0.25-0.938 1.063-1.719 3.656-2.594-0.844-1.313-2.5-2.375-1.313-0.906-4.563-1.156-3.219 0.219-4.594 1.156-1.656 1.063-2.5 2.375 2.594 0.875 3.656 2.594 0.219 0.594-0.25 0.938-0.438 0.344-0.938-0.063-1.625-2.125-3.906-2.125-1.156 0.031-2.188 0.531-2.5 1.344-2.469 3.906l0.156 1.031q0.5 1.281 1.281 2.063 1.531 1.188 4.594 0.813 1.594-0.281 3.344-0.875 2.313 0.594 3.938 0.594 1.469 0 3.906-0.594 1.688 0.594 3.406 0.875 2.594 0.375 4.063-0.594zM4.219 15.563q-2.875-1.75-2.875-5.188 0-2.031 1.656-3.75 1.875-1.656 4.031-1.781 1.031-1.5 2-2.406 2.531-2.344 7-2.438 4.438 0.125 6.969 2.438 0.969 0.906 2 2.406 2.156 0.125 4.031 1.781 1.656 1.719 1.656 3.75 0 3.469-2.906 5.188-1.813 0.813-4.688 0.375-1.375-0.188-3-0.656-0.844 0.313-0.844 1.594v1.031q-0.156 0.625-0.813 0.625-0.813-0.125-0.813-0.625v-0.781q0-0.906 0.219-1.688l-1.844 0.094-1.625-0.094q0.219 0.781 0.219 1.688v0.781q-0.125 0.625-0.813 0.625-0.781-0.125-0.781-0.625v-1.031q0-1.281-0.938-1.531-1.594 0.5-3.063 0.719-2.969 0.406-4.781-0.5zM19.875 19.625q1.063 0 1.281 1.594 0.438 2.031 2.969 4.781 3 2.875 5.594 4.469l0.531 0.313q0.438 0.281 0.438 0.625 0 0.188-0.094 0.375-0.219 0.219-0.531 0.219-0.25 0-0.594-0.156-2.688-1.438-6.656-5.406-2.531-2.938-3.031-5.469h-0.5q-0.531 0.938-1.125 0.906h-0.188q-0.25-0.031-0.563-0.281h-0.094q-0.469 1.156-1.313 1.125h-0.125q-0.844-0.031-1.875-1.75h-1.688v0.094q0 2.625-4.156 6.75-0.313 0.281-0.656 0.531-3.063 2.531-4.906 3.469-0.375 0.188-0.625 0.188-0.313 0-0.5-0.188-0.125-0.156-0.125-0.406 0-0.344 0.438-0.625l0.563-0.344q1.688-1 4.25-3.063 0.875-0.75 1.813-1.656 2.281-2.625 2.5-4.094 0.188-2 1.281-2h2.063q0.875 0.063 1.594 1.563h0.156q0.469-1.281 1.313-1.25h0.156l0.625 0.375q0.438-0.688 1-0.688h0.781z"></path>
</svg>
