<!-- Generated by IcoMoon.io -->
<svg version="1.1" xmlns="http://www.w3.org/2000/svg" width="32" height="32" viewBox="0 0 32 32">
<path fill="#444" d="M22.281 19.594q-0.938 0.625-2.188 0.625-1.344 0-2.281-0.781-0.969-0.781-0.969-1.875v-2.938q0-1.094 0.938-1.875 0.969-0.781 2.313-0.781 1.281 0 2.156 0.625 0.188 0.188 0.219 0.406v0.094q0 0.25-0.156 0.406-0.25 0.219-0.563 0.156l-0.156-0.063q-0.531-0.406-1.5-0.469-1.031 0.063-1.531 0.5t-0.5 1v2.938q0 0.563 0.5 1t1.531 0.531q0.875-0.094 1.406-0.438 0.156-0.094 0.313-0.125 0.219-0.031 0.375 0.094 0.25 0.188 0.281 0.531 0 0.25-0.188 0.438zM14.281 11.594q0.094 0.219 0.125 0.406 0.063 0.219 0.063 0.469t-0.031 0.438q-0.063 0.219-0.156 0.438t-0.219 0.344q-0.125 0.188-0.281 0.344t-0.344 0.25q-0.219 0.125-0.375 0.219-0.219 0.094-0.438 0.125-0.219 0.063-0.5 0.063-0.25 0-0.469-0.031-0.219-0.063-0.438-0.156t-0.375-0.188q-0.188-0.125-0.344-0.281-0.188-0.156-0.281-0.313-0.125-0.156-0.219-0.375t-0.125-0.406q-0.063-0.219-0.063-0.469t0.031-0.438q0.063-0.219 0.156-0.438t0.188-0.344q0.125-0.188 0.313-0.344 0.156-0.156 0.344-0.25 0.156-0.125 0.375-0.219t0.438-0.125q0.219-0.063 0.5-0.063 0.25 0 0.469 0.031 0.219 0.063 0.438 0.156 0.156 0.094 0.344 0.188 0.219 0.125 0.375 0.281t0.281 0.313 0.219 0.375zM13.25 12.5q0-0.219-0.063-0.406-0.094-0.188-0.25-0.375-0.188-0.156-0.406-0.219-0.188-0.094-0.438-0.094-0.219 0-0.406 0.063-0.219 0.094-0.406 0.25-0.156 0.188-0.219 0.375-0.094 0.188-0.094 0.406t0.063 0.406q0.094 0.219 0.25 0.375 0.188 0.156 0.406 0.219 0.188 0.094 0.438 0.094 0.219 0 0.406-0.063 0.219-0.094 0.406-0.25 0.156-0.156 0.219-0.375 0.094-0.188 0.094-0.406z"></path>
</svg>
