<!-- Generated by IcoMoon.io -->
<svg version="1.1" xmlns="http://www.w3.org/2000/svg" width="32" height="32" viewBox="0 0 32 32">
<path fill="#444" d="M1.5 13.344q-0.188-0.188-0.188-0.469 0-0.25 0.188-0.438t0.438-0.188h2.875q0.25 0 0.406 0.188 0.188 0.188 0.188 0.438t-0.156 0.438q-0.156 0.219-0.406 0.219h-2.906q-0.25 0-0.438-0.188zM21.156 5.313q0 0.25-0.156 0.406l-1.688 1.75q-0.219 0.156-0.469 0.156-0.281 0-0.469-0.188-0.156-0.188-0.156-0.438 0-0.281 0.156-0.438l1.719-1.719q0.188-0.188 0.438-0.188 0.281 0 0.469 0.188 0.156 0.188 0.156 0.469zM4.844 5.281q0-0.25 0.188-0.438 0.156-0.188 0.406-0.188 0.281 0 0.469 0.188l1.719 1.719q0.156 0.156 0.156 0.406 0 0.281-0.156 0.469t-0.438 0.188-0.469-0.156l-1.688-1.75q-0.188-0.156-0.188-0.438zM12.531 1.344q0.188-0.188 0.438-0.188 0.281 0 0.469 0.188t0.188 0.438v2.844q0 0.25-0.188 0.438t-0.438 0.188-0.438-0.156q-0.188-0.188-0.188-0.438v-2.875q0-0.25 0.156-0.438zM18.688 10.5q2.313 0.438 4.281 2.156 0.938 0.938 1.969 2.438 2.156 0.125 4.031 1.813 1.656 1.781 1.656 3.844 0 4.219-4.094 5.875-0.875 0.219-2.5 0.25h-18.313q-4.156-0.031-4.375-3.594v-0.094q0.031-2.156 2.219-3.375 0.188-1.188 0.781-2.094 1.031-1.531 3.094-1.906l-0.063-0.125q-0.625-1.25-0.625-2.813 0-2.594 1.781-4.375 1.813-1.813 4.406-1.813t4.406 1.781q0.813 0.844 1.25 1.813 0.031 0.031 0.094 0.219zM17.094 10.313l-0.063-0.125q-0.281-0.406-0.625-0.781-1.406-1.375-3.5-1.375-2.031 0-3.438 1.375-1.406 1.406-1.406 3.469 0 1.219 0.5 2.219l0.031 0.063q0.375-0.656 0.844-1.281 1.094-1.563 3.406-2.719 1.656-0.719 3.813-0.844h0.438z"></path>
</svg>
