<!-- Generated by IcoMoon.io -->
<svg version="1.1" xmlns="http://www.w3.org/2000/svg" width="32" height="32" viewBox="0 0 32 32">
<path fill="#444" d="M5.438 16.656q1.156-0.813 2.906-0.906-0.156-0.281-0.281-0.875-0.188-1.281 0.25-2.438 1.031-2.281 3.469-2.906 0.438-0.656 0.938-1.219 0.438-0.531 0.969-0.969 1.188-0.938 2.406-1.281 0.938-0.313 2.469-0.375h0.219q3.25 0 5.313 2 1.031 1 1.594 1.906 1.656 0.063 2.969 1.219 1.063 1.063 1.313 2.75 0.125 1.969-0.969 3.313l-0.031 0.031q0 0.031 0.031 0.031 1.656 1.781 1.656 3.844 0 4.219-4.094 5.875-0.875 0.219-2.5 0.25h-18.313q-4.156-0.031-4.375-3.594v-0.094q0.031-2.156 2.219-3.375 0.188-1.125 0.719-2.031 0.5-0.75 1.125-1.156z"></path>
</svg>
