<!-- Generated by IcoMoon.io -->
<svg version="1.1" xmlns="http://www.w3.org/2000/svg" width="32" height="32" viewBox="0 0 32 32">
<path fill="#444" d="M14.656 22.688h3.625l-1.906 2.906h2.531l-5.5 5.656 1.844-4.25h-2.156zM12.844 5.563q1.656-0.719 3.813-0.844h0.25q3.375 0 6.063 2.344 0.938 0.938 1.969 2.438 1.5 0.094 2.875 0.938l0.063-0.094q0.406-0.563 0.563-1.188 0.188-0.938 0.031-1.531-0.406-1.594-1.813-2.125-0.563-0.219-1.313-0.219-0.781 0.031-1.281 0.344-0.656 0.469-1.063 0.031-0.375-0.438-0.031-0.906 0.469-0.5 1.031-0.625-0.656-1-2-1.938-1.313-0.781-3.281-0.813-0.5 0-0.938 0.031-1.688 0.188-3.031 1.125-1.281 1.031-2.063 2.531-0.625 0.156-1.25 0.375-0.719 0.25-1.344 0.969-0.75 1-0.625 1.875 0.313-0.5 0.75-0.938 1.031-1 2.625-1.781zM24.406 19.938q3.313 0 4.594-3.438l0.156-1.063q0.031-2.625-2.469-4-1.031-0.5-2.188-0.531-2.281 0-3.906 2.188-0.5 0.406-0.938 0.063-0.469-0.375-0.25-0.969 1.063-1.781 3.656-2.656-0.844-1.313-2.5-2.406-1.625-1-3.375-1h-0.781q-3.281 0.281-5.188 2.25l-0.156 0.156q-0.344 0.375-0.625 0.813-0.25 0.375-0.469 0.781-0.688 1.531-0.813 3.156-0.063 0.844-0.813 0.813-0.625-0.031-0.625-0.906 0.063-0.938 0.219-1.656-1.188 0.031-1.969 0.688-1.25 1.188-1.031 2.969-1.063 0.25-1.594 0.844-0.625 0.688-0.625 1.656 0.094 0.906 0.688 1.563 0.844 0.688 1.75 0.688h19.25zM5.719 21.281q-4.156-0.031-4.375-3.594v-0.094q0.031-2.156 2.219-3.375 0.188-1.188 0.781-2.094 1.25-1.844 3.969-2-0.156-0.281-0.281-0.875-0.188-1.281 0.25-2.438 1.031-2.281 3.469-2.906 0.75-1.156 1.688-2 1.281-1.094 2.625-1.469 0.938-0.313 2.469-0.375h0.219q3.25 0 5.313 2 1.031 1 1.594 1.906 1.656 0.063 2.969 1.219 1.063 1.063 1.313 2.75 0.125 1.969-0.969 3.313l-0.031 0.031q0 0.031 0.031 0.031 1.656 1.781 1.656 3.844 0 4.219-4.094 5.875-0.875 0.219-2.5 0.25h-18.313z"></path>
</svg>
