<!-- Generated by IcoMoon.io -->
<svg version="1.1" xmlns="http://www.w3.org/2000/svg" width="32" height="32" viewBox="0 0 32 32">
<path fill="#444" d="M19.438 10.688q1.875 0.563 3.531 2 0.938 0.938 1.969 2.438 2.156 0.125 4.031 1.813 1.656 1.781 1.656 3.844 0 4.219-4.094 5.875-0.875 0.219-2.5 0.25h-18.313q-4.156-0.031-4.375-3.594v-0.094q0.031-2.156 2.219-3.375 0.188-1.188 0.781-2.094 1.219-1.813 3.906-2l-0.25-0.125q-0.688-0.438-1.313-1.063-1.094-1.094-1.469-2.281-0.156-0.469-0.156-0.781 0-0.25 0.094-0.406 0.125-0.344 0.5-0.438 0.344-0.094 0.625 0.094l0.25 0.094q0.719 0.219 1.563 0.219 2.5 0 4.188-1.719 1.719-1.719 1.719-4.219 0-0.719-0.125-1.344l-0.031-0.094-0.094-0.344-0.031-0.313q-0.031-0.375 0.281-0.656 0.219-0.125 0.438-0.156h0.094q0.313 0 0.656 0.156 1.375 0.563 2.188 1.5 2.188 2.156 2.188 5.344 0 0.656-0.094 1.313zM18.063 10.406l0.031-0.156q0.094-0.531 0.094-1.125 0-2.594-1.75-4.375-0.469-0.438-0.969-0.781 0.031 0.344 0.031 0.656 0 3.313-2.25 5.563-2.281 2.281-5.563 2.281-0.438 0-0.906-0.031 0.375 0.531 0.875 1.063 0.594 0.594 1.313 1l0.031 0.031q0.188-0.313 0.438-0.625 1.094-1.563 3.406-2.719 1.656-0.719 3.813-0.844h0.25q0.594 0 1.156 0.063z"></path>
</svg>
