<!-- Generated by IcoMoon.io -->
<svg version="1.1" xmlns="http://www.w3.org/2000/svg" width="32" height="32" viewBox="0 0 32 32">
<path fill="#444" d="M21.719 2.469q2.688 1.125 4.688 3.125t3.125 4.688q1.156 2.656 1.156 5.688 0 3.063-1.156 5.719-1.125 2.688-3.125 4.688t-4.688 3.125q-2.656 1.156-5.688 1.156-3.063 0-5.719-1.156-2.688-1.125-4.688-3.125t-3.125-4.688q-1.156-2.656-1.156-5.719 0-3.031 1.156-5.688 1.125-2.688 3.125-4.688t4.688-3.125q2.656-1.156 5.719-1.156 3.031 0 5.688 1.156zM14.188 14.156l7.344-3.688-3.688 7.344-7.344 3.688zM20.375 26.344q2.063-0.844 3.594-2.406 1.594-1.563 2.438-3.625 0.906-2.031 0.906-4.375 0-2.313-0.906-4.344-0.844-2.063-2.406-3.594-1.563-1.594-3.625-2.438-2.031-0.906-4.344-0.906-2.344 0-4.375 0.906-2.063 0.844-3.594 2.406-1.594 1.563-2.438 3.625-0.906 2.031-0.906 4.344 0 2.344 0.906 4.375 0.844 2.063 2.406 3.594 1.563 1.594 3.625 2.438 2.031 0.906 4.375 0.906 2.313 0 4.344-0.906z"></path>
</svg>
