<!-- Generated by IcoMoon.io -->
<svg version="1.1" xmlns="http://www.w3.org/2000/svg" width="32" height="32" viewBox="0 0 32 32">
<path fill="#444" d="M20.75 8.375l1.375-0.125q3.75 0.188 5.094 3.781 0.281 0.813 0.25 1.719-0.094 2.563-2.656 4.344 0.75 1.5 0.75 2.781-0.063 4.438-4.25 5.281-0.781 0.094-1.563 0.031-1.281 1.75-2.969 1.75-1.313 0-2.25-1.156-1.063 0.531-2.031 0.531h-0.75q-4.063-0.438-4.813-4.188-0.094-0.719-0.125-1.625-2.531-0.594-2.5-2.875 0.063-0.719 0.188-1.156-1.594-0.938-1.594-2.875 0-0.344 0.063-0.75 0.719-2.875 3.969-2.813 0.656-4.594 4.594-4.594 1.188 0.063 2.156 0.438 1-1.5 2.969-1.531 3.063-0.031 4.094 3.031zM14 8.438q-1.375-0.719-2.344-0.719h-0.219q-2.25 0-3 2.438-0.156 1.063-0.219 2.313l-1.5-0.188q-1.281-0.063-2.031 0.969-0.5 0.5-0.469 1.531 0.063 0.469 0.313 0.906 0.563 0.813 1.688 1.219-0.5 0.875-0.5 1.906 0.344 1.406 1.625 1.531l0.938 0.063q-0.094 1.031-0.031 2 0 2.438 2.594 3.438 1.031 0.188 1.906 0.094 1.125-0.219 2.156-0.813 1.063 1.313 1.906 1.313 1.375 0 2.156-1.781 0.75 0.156 1.406 0.219 2.906-0.219 3.594-2.688 0.406-1.25-0.031-2.625-0.406-1-0.906-1.906 0.938-0.438 1.688-1.063 1.188-1.313 1.281-2.563v-0.969q-0.5-2.5-2.594-3.188-1.563-0.406-3.625 0.063-0.125-0.813-0.656-1.906-0.813-1.375-2.438-1.375-1.375 0-2.688 1.781zM28.688 18.625q0.344 0.344 0.344 0.844 0 0.469-0.313 0.813-0.344 0.344-0.844 0.344t-0.844-0.344-0.344-0.813q0-0.5 0.344-0.844t0.844-0.344 0.813 0.344zM18.281 10.75q0.344 0.344 0.344 0.844 0 0.531-0.344 0.875-0.375 0.375-0.875 0.375-0.563 0-0.906-0.344-0.375-0.375-0.375-0.906 0-0.5 0.344-0.844 0.375-0.375 0.938-0.375 0.5 0 0.875 0.375zM5.375 5.531q0.313 0.344 0.313 0.813 0 0.5-0.313 0.844-0.344 0.375-0.844 0.375t-0.844-0.344q-0.344-0.375-0.344-0.875 0-0.469 0.344-0.813t0.844-0.344 0.844 0.344zM23.188 5.531q0.188 0.188 0.188 0.438t-0.156 0.406q-0.188 0.188-0.469 0.188-0.25 0-0.406-0.156-0.188-0.188-0.188-0.438t0.156-0.438q0.188-0.188 0.438-0.188 0.281 0 0.438 0.188zM28.156 5.25q0.281 0.25 0.281 0.656t-0.25 0.656q-0.281 0.281-0.688 0.281t-0.688-0.25q-0.281-0.281-0.281-0.688t0.281-0.656q0.281-0.281 0.688-0.281t0.656 0.281zM12.063 12.969q0.219 0.219 0.219 0.563 0 0.313-0.219 0.531-0.25 0.219-0.563 0.219-0.344 0-0.563-0.219t-0.219-0.531q0-0.344 0.219-0.563t0.563-0.219q0.313 0 0.563 0.219zM14.031 9.625q0.188 0.156 0.188 0.406t-0.156 0.406q-0.188 0.188-0.438 0.188t-0.406-0.156q-0.188-0.188-0.188-0.438t0.156-0.406q0.188-0.188 0.438-0.188t0.406 0.188zM23.5 14.563q0.281 0.281 0.281 0.656 0 0.438-0.25 0.688-0.281 0.281-0.688 0.281t-0.656-0.25q-0.281-0.281-0.281-0.719 0-0.375 0.25-0.656 0.281-0.281 0.688-0.281t0.656 0.281zM17.625 15.906q0.25 0.281 0.25 0.656 0 0.438-0.25 0.688-0.281 0.281-0.688 0.281t-0.656-0.25q-0.281-0.281-0.281-0.719 0-0.375 0.25-0.625 0.281-0.281 0.688-0.281t0.688 0.25zM13.625 18.219q0.156 0.188 0.156 0.438t-0.156 0.406q-0.188 0.188-0.438 0.188t-0.406-0.156q-0.188-0.188-0.188-0.438t0.156-0.438q0.188-0.188 0.438-0.188t0.438 0.188zM5.625 22.625q0.25 0.281 0.25 0.656 0 0.438-0.25 0.688-0.281 0.281-0.688 0.281t-0.656-0.25q-0.281-0.281-0.281-0.719 0-0.375 0.25-0.625 0.281-0.281 0.688-0.281t0.688 0.25zM9 16.125q0.25 0.219 0.25 0.531 0 0.344-0.219 0.563-0.25 0.219-0.563 0.219-0.344 0-0.563-0.219t-0.219-0.563q0-0.313 0.219-0.531 0.219-0.25 0.563-0.25 0.313 0 0.531 0.25zM21.375 19.438q0.188 0.188 0.188 0.438t-0.156 0.406q-0.188 0.188-0.438 0.188t-0.406-0.156q-0.188-0.188-0.188-0.438t0.156-0.406q0.188-0.188 0.438-0.188t0.406 0.156zM17.781 22.438q0.156 0.188 0.156 0.438t-0.156 0.406q-0.188 0.188-0.438 0.188t-0.406-0.156q-0.188-0.188-0.188-0.438t0.156-0.406q0.188-0.188 0.438-0.188t0.438 0.156zM13.25 21.469q0.344 0.344 0.344 0.875t-0.344 0.875q-0.375 0.375-0.906 0.375t-0.875-0.344q-0.375-0.375-0.375-0.906t0.344-0.875q0.375-0.375 0.906-0.375t0.906 0.375zM22.625 26.969q0.281 0.281 0.281 0.688t-0.25 0.656q-0.281 0.281-0.688 0.281t-0.656-0.25q-0.281-0.281-0.281-0.688t0.25-0.656q0.281-0.281 0.688-0.281t0.656 0.25zM27.031 26.875q0.188 0.188 0.188 0.438t-0.156 0.406q-0.188 0.188-0.438 0.188t-0.406-0.156q-0.188-0.188-0.188-0.438t0.156-0.406q0.188-0.188 0.438-0.188t0.406 0.156zM4.156 25.563q0.156 0.156 0.156 0.406t-0.156 0.406q-0.188 0.188-0.438 0.188t-0.406-0.156q-0.188-0.188-0.188-0.438t0.156-0.406q0.188-0.188 0.438-0.188t0.438 0.188zM6.938 26.656q0.188 0.188 0.188 0.438t-0.156 0.406q-0.188 0.188-0.438 0.188t-0.406-0.156q-0.188-0.188-0.188-0.438t0.156-0.406q0.188-0.188 0.438-0.188t0.406 0.156z"></path>
</svg>
