<!-- Generated by IcoMoon.io -->
<svg version="1.1" xmlns="http://www.w3.org/2000/svg" width="32" height="32" viewBox="0 0 32 32">
<path fill="#444" d="M4.5 16.5q-0.188-0.188-0.188-0.469 0-0.25 0.188-0.438t0.438-0.188h2.875q0.25 0 0.406 0.188 0.188 0.188 0.188 0.438t-0.156 0.438-0.406 0.188h-2.906q-0.25 0-0.438-0.156zM7.844 8.438q0-0.281 0.188-0.469 0.156-0.156 0.406-0.156 0.281 0 0.469 0.156l1.719 1.75q0.156 0.156 0.156 0.406 0 0.281-0.156 0.438-0.156 0.219-0.438 0.219t-0.469-0.188l-1.688-1.719q-0.188-0.188-0.188-0.438zM15.531 4.5q0.188-0.219 0.438-0.219 0.281 0 0.469 0.188 0.188 0.219 0.188 0.469v2.844q0 0.25-0.188 0.438t-0.438 0.188-0.438-0.156q-0.188-0.188-0.188-0.438v-2.875q0-0.25 0.156-0.438zM15.531 23.844q0.188-0.188 0.438-0.188 0.281 0 0.469 0.188 0.188 0.219 0.188 0.469v2.844q0 0.25-0.188 0.438t-0.438 0.188-0.438-0.156q-0.188-0.188-0.188-0.438v-2.875q0-0.25 0.156-0.469zM8.031 23.188l1.688-1.719q0.188-0.188 0.469-0.188t0.438 0.219q0.156 0.156 0.156 0.406 0 0.281-0.156 0.438l-1.719 1.75q-0.188 0.156-0.438 0.156-0.281 0-0.438-0.156-0.188-0.219-0.188-0.469 0-0.281 0.188-0.438zM15.406 20.438q-1.813-1.781-1.813-4.406 0-2.594 1.813-4.406 0.219-0.219 0.469-0.438-1.938 0.031-3.313 1.375-1.406 1.406-1.406 3.469 0 2.031 1.406 3.438 1.375 1.406 3.344 1.438-0.25-0.219-0.5-0.469zM17.906 21.969q-0.875 0.25-1.875 0.25-2.594 0-4.375-1.781-1.813-1.781-1.813-4.406 0-2.594 1.781-4.375 1.813-1.813 4.406-1.813 1 0 1.875 0.25 0.875-0.25 1.875-0.25 2.594 0 4.375 1.781 1.813 1.813 1.813 4.406 0 2.625-1.781 4.406-1.813 1.781-4.406 1.781-1 0-1.875-0.25z"></path>
</svg>
