<!-- Generated by IcoMoon.io -->
<svg version="1.1" xmlns="http://www.w3.org/2000/svg" width="32" height="32" viewBox="0 0 32 32">
<path fill="#444" d="M17.406 11.969h4.5q0.219 0 0.375 0.156 0.188 0.188 0.188 0.469 0 0.094-0.031 0.219t-0.156 0.25q-0.156 0.156-0.406 0.156h-3.813v2.188h2.469q0.219 0 0.375 0.156 0.188 0.156 0.188 0.469 0 0.344-0.188 0.469-0.188 0.156-0.406 0.156h-2.438v2.938q0 0.25-0.188 0.438t-0.438 0.188-0.438-0.156q-0.188-0.188-0.188-0.438v-7q0-0.25 0.156-0.438 0.188-0.219 0.438-0.219zM14.281 11.594q0.094 0.219 0.125 0.406 0.063 0.219 0.063 0.469t-0.031 0.438q-0.063 0.219-0.156 0.438t-0.219 0.344q-0.125 0.188-0.281 0.344t-0.344 0.25q-0.219 0.125-0.375 0.219-0.219 0.094-0.438 0.125-0.219 0.063-0.5 0.063-0.25 0-0.469-0.031-0.219-0.063-0.438-0.156t-0.375-0.188q-0.188-0.125-0.344-0.281-0.188-0.156-0.281-0.313-0.125-0.156-0.219-0.375t-0.125-0.406q-0.063-0.219-0.063-0.469t0.031-0.438q0.063-0.219 0.156-0.438t0.188-0.344q0.125-0.188 0.313-0.344 0.156-0.156 0.344-0.25 0.156-0.125 0.375-0.219t0.438-0.125q0.219-0.063 0.5-0.063 0.25 0 0.469 0.031 0.219 0.063 0.438 0.156 0.156 0.094 0.344 0.188 0.219 0.125 0.375 0.281t0.281 0.313 0.219 0.375zM13.25 12.5q0-0.219-0.063-0.406-0.094-0.188-0.25-0.375-0.188-0.156-0.406-0.219-0.188-0.094-0.438-0.094-0.219 0-0.406 0.063-0.219 0.094-0.406 0.25-0.156 0.188-0.219 0.375-0.094 0.188-0.094 0.406t0.063 0.406q0.094 0.219 0.25 0.375 0.188 0.156 0.406 0.219 0.188 0.094 0.438 0.094 0.219 0 0.406-0.063 0.219-0.094 0.406-0.25 0.156-0.156 0.219-0.375 0.094-0.188 0.094-0.406z"></path>
</svg>
