<!-- Generated by IcoMoon.io -->
<svg version="1.1" xmlns="http://www.w3.org/2000/svg" width="32" height="32" viewBox="0 0 32 32">
<path fill="#444" d="M3.219 26.375q-0.219-0.25-0.219-0.563t0.219-0.531q0.25-0.25 0.563-0.25h22.844q0.344 0 0.563 0.219 0.219 0.25 0.219 0.563t-0.219 0.531q-0.219 0.25-0.563 0.25h-22.844q-0.313 0-0.563-0.219zM4.813 23.25q-0.219-0.25-0.219-0.563t0.219-0.531q0.25-0.25 0.563-0.25h22.844q0.344 0 0.563 0.219 0.219 0.25 0.219 0.563t-0.219 0.531q-0.219 0.25-0.563 0.25h-22.844q-0.313 0-0.563-0.219zM3.25 20.125q-0.25-0.25-0.25-0.563t0.219-0.531q0.25-0.25 0.563-0.25h22.844q0.344 0 0.563 0.219 0.219 0.25 0.219 0.563t-0.219 0.531q-0.219 0.25-0.563 0.25h-22.844q-0.313 0-0.531-0.219z"></path>
</svg>
