<!-- Generated by IcoMoon.io -->
<svg version="1.1" xmlns="http://www.w3.org/2000/svg" width="32" height="32" viewBox="0 0 32 32">
<path fill="#444" d="M3.219 23.25q-0.219-0.219-0.219-0.531t0.219-0.531 0.531-0.219h17.25q0.344 0 0.531 0.219 0.219 0.219 0.219 0.531t-0.188 0.531q-0.219 0.219-0.563 0.219h-17.25q-0.313 0-0.531-0.219zM19.563 26.375q-0.219-0.219-0.219-0.531 0-0.281 0.219-0.5 0.25-0.25 0.531-0.25h8.156q0.344 0 0.531 0.219 0.219 0.219 0.219 0.531t-0.188 0.531q-0.219 0.219-0.563 0.219h-8.156q-0.281 0-0.531-0.219zM16.625 15.719q0.344 0 0.594 0.188t0.25 0.563q0 0.344-0.25 0.531-0.25 0.219-0.594 0.219h-12.75q-0.375 0-0.594-0.156-0.156-0.094-0.219-0.25t-0.063-0.375v-0.781q0.031-1.969 1.969-3 0.156-1.063 0.688-1.875 1.125-1.656 3.531-1.781 0.344-0.844 0.969-1.625 0.969-1.375 3.031-2.406 1.469-0.625 3.406-0.75h0.219q3 0 5.375 2.094 0.813 0.813 1.75 2.156 1.875 0.063 3.563 1.594 1.469 1.594 1.469 3.438 0 1.906-0.938 3.219-0.094 0.125-0.25 0.25-0.281 0.25-0.594 0.219-0.406-0.031-0.594-0.375-0.156-0.344 0.125-0.813 0.438-0.688 0.563-1 0.125-0.344 0.25-1.25 0.031-2.281-2.125-3.469-0.906-0.438-1.906-0.469-1.969 0-3.406 1.906-0.5 0.406-0.906 0.063-0.438-0.344-0.219-0.938 0.938-1.594 3.156-2.344-0.656-1.094-2.125-2.063-1.438-0.844-2.938-0.844h-0.688q-3.844 0.344-5.531 3.25-0.719 1.438-0.813 3-0.063 0.813-0.781 0.781-0.625-0.031-0.625-0.875 0.063-0.813 0.188-1.406-0.969 0.031-1.625 0.625-1.063 1.031-0.875 2.594-0.969 0.219-1.438 0.75-0.531 0.594-0.531 1.406h12.281zM3.219 20.125q-0.219-0.219-0.219-0.531t0.219-0.531 0.531-0.219h6.563q0.344 0 0.531 0.219 0.219 0.219 0.219 0.531 0 0.344-0.188 0.531-0.219 0.219-0.563 0.219h-6.563q-0.313 0-0.531-0.219zM13.406 20.125q-0.219-0.219-0.219-0.531t0.219-0.531 0.531-0.219h14.313q0.344 0 0.531 0.219 0.219 0.219 0.219 0.531 0 0.344-0.188 0.531-0.219 0.219-0.563 0.219h-14.313q-0.313 0-0.531-0.219z"></path>
</svg>
