<!-- Generated by IcoMoon.io -->
<svg version="1.1" xmlns="http://www.w3.org/2000/svg" width="32" height="32" viewBox="0 0 32 32">
<path fill="#444" d="M24.156 8.438q0 0.25-0.156 0.438l-1.688 1.719q-0.219 0.188-0.469 0.188-0.281 0-0.469-0.219-0.156-0.156-0.156-0.406 0-0.281 0.156-0.438l1.719-1.75q0.188-0.156 0.438-0.156 0.281 0 0.469 0.156 0.156 0.188 0.156 0.469zM7.844 8.406q0-0.25 0.188-0.438 0.156-0.156 0.406-0.156 0.281 0 0.469 0.156l1.719 1.75q0.156 0.156 0.156 0.406 0 0.281-0.156 0.438-0.156 0.219-0.438 0.219t-0.469-0.188l-1.688-1.719q-0.188-0.188-0.188-0.469zM15.531 4.5q0.188-0.219 0.438-0.219 0.281 0 0.469 0.188 0.188 0.219 0.188 0.469v2.844q0 0.25-0.188 0.438t-0.438 0.188-0.438-0.156q-0.188-0.188-0.188-0.438v-2.875q0-0.25 0.156-0.438zM15.531 23.844q0.188-0.188 0.438-0.188 0.281 0 0.469 0.188 0.188 0.219 0.188 0.469v2.844q0 0.25-0.188 0.438t-0.438 0.188-0.438-0.156q-0.188-0.188-0.188-0.438v-2.875q0-0.25 0.156-0.469zM23.781 16.5q-0.188-0.188-0.188-0.469 0-0.25 0.188-0.438t0.438-0.188h2.875q0.25 0 0.406 0.188 0.188 0.188 0.188 0.438t-0.156 0.438-0.406 0.188h-2.906q-0.25 0-0.438-0.156zM24.156 23.594q0 0.281-0.156 0.5-0.188 0.156-0.438 0.156-0.281 0-0.469-0.156l-1.719-1.75q-0.156-0.156-0.156-0.406 0-0.281 0.156-0.438 0.188-0.219 0.438-0.219 0.281 0 0.5 0.188l1.688 1.719q0.156 0.156 0.156 0.406zM7.844 23.594q0-0.25 0.188-0.406l1.688-1.719q0.188-0.188 0.469-0.188t0.438 0.219q0.156 0.156 0.156 0.406 0 0.281-0.156 0.438l-1.719 1.75q-0.188 0.156-0.438 0.156-0.281 0-0.438-0.156-0.188-0.219-0.188-0.5zM21.813 18.375h1.813q0.344 0 0.563 0.219 0.219 0.25 0.219 0.563t-0.219 0.531q-0.219 0.25-0.563 0.25h-2.75l-0.438 0.5q-1.813 1.781-4.406 1.781t-4.375-1.781q-1.531-1.5-1.813-3.656h-6.094q-0.313 0-0.531-0.219t-0.219-0.531 0.219-0.531 0.531-0.219h6.094q0.125-0.875 0.438-1.594h-3.5q-0.313 0-0.531-0.219-0.25-0.25-0.25-0.563 0-0.281 0.219-0.531 0.25-0.25 0.563-0.25h4.406q0.219-0.25 0.469-0.5 1.781-1.781 4.375-1.781t4.375 1.781q1.813 1.813 1.813 4.406 0 1.281-0.406 2.344zM20.313 18.375q0.563-1.063 0.563-2.344 0-2.063-1.375-3.438-1.406-1.406-3.5-1.406-1.656 0-2.906 0.938h4.188q0.344 0 0.563 0.25t0.219 0.531q0 0.344-0.219 0.563t-0.563 0.219h-5.563q-0.375 0.719-0.5 1.594h3.125q0.313 0 0.531 0.219 0.219 0.25 0.219 0.531 0 0.344-0.219 0.531-0.219 0.219-0.563 0.219h-3.094q0.219 1.563 1.344 2.688 1.406 1.438 3.438 1.438 1.719 0 2.969-0.969h-4.5q-0.313 0-0.531-0.219-0.25-0.25-0.25-0.563 0-0.281 0.219-0.531 0.25-0.25 0.563-0.25h5.844z"></path>
</svg>
