<!-- Generated by IcoMoon.io -->
<svg version="1.1" xmlns="http://www.w3.org/2000/svg" width="32" height="32" viewBox="0 0 32 32">
<path fill="#444" d="M16 13.344q-1.125 0-1.906 0.75-0.781 0.781-0.781 1.938 0 1.125 0.781 1.906t1.906 0.781q1.156 0 1.906-0.781 0.781-0.781 0.781-1.906 0-1.156-0.75-1.906-0.781-0.781-1.938-0.781zM9.906 15.594q-0.469-4.406 3.438-8.969 2.594-2.75 6-3.594 0.094-0.031 0.281-0.031h0.031q0.219 0 0.406 0.094 0.25 0.156 0.313 0.438 0.063 0.344-0.094 0.625-0.156 0.25-0.469 0.313-3 0.75-5.281 3.156-1.625 1.719-2.406 3.594l0.094-0.094q2.781-3.156 8.531-3.594 3.75-0.125 6.844 1.75 0.063 0.031 0.125 0.094 0.125 0.125 0.219 0.281 0.094 0.344-0.063 0.594-0.125 0.281-0.406 0.375-0.313 0.094-0.625-0.063-2.688-1.594-6-1.5-2.188 0.031-4.063 0.75 4.219-0.25 8.594 3.5 2.75 2.594 3.594 6.063 0.031 0.156 0.031 0.313 0 0.188-0.125 0.375t-0.438 0.281q-0.344 0.063-0.594-0.094-0.219-0.125-0.313-0.5-0.75-2.969-3.156-5.25-1.656-1.563-3.469-2.344 0.031 0.031 0.031 0.063 3.156 2.781 3.594 8.531 0.125 3.75-1.719 6.75-0.094 0.125-0.156 0.188t-0.188 0.156q-0.406 0.219-0.719 0.031-0.281-0.156-0.375-0.438-0.063-0.313 0.156-0.688 1.563-2.594 1.469-5.906-0.031-2.375-0.844-4.281v0.156q0.281 4.25-3.5 8.656-2.563 2.75-6.094 3.594-0.125 0.031-0.219 0.031-0.188 0-0.375-0.094-0.219-0.125-0.313-0.406-0.094-0.313 0.031-0.563 0.125-0.281 0.5-0.406 3.031-0.75 5.313-3.156 1.531-1.656 2.344-3.5-2.781 3.219-8.594 3.688-3.75 0.125-6.719-1.75l-0.156-0.094q-0.156-0.094-0.25-0.281-0.156-0.344 0.031-0.688 0.125-0.219 0.406-0.281 0.344-0.125 0.688 0.094 2.594 1.563 5.906 1.469 2.375-0.031 4.313-0.844-4.344 0.406-8.844-3.469-2.75-2.563-3.594-6.063-0.031-0.125-0.031-0.281v-0.031q0-0.156 0.063-0.344 0.094-0.25 0.406-0.344 0.344-0.094 0.594 0.063 0.281 0.156 0.406 0.563 0.75 3 3.156 5.281 1.719 1.625 3.625 2.438-3.313-2.781-3.781-8.75-0.125-3.719 1.781-6.813 0.156-0.281 0.438-0.375 0.281-0.063 0.563 0.094 0.25 0.125 0.375 0.406 0.094 0.313-0.094 0.625-1.625 2.688-1.531 5.969 0.031 2.438 0.906 4.438z"></path>
</svg>
