<!-- Generated by IcoMoon.io -->
<svg version="1.1" xmlns="http://www.w3.org/2000/svg" width="32" height="32" viewBox="0 0 32 32">
<path fill="#444" d="M14.625 23.438h3.625l-1.906 2.906h2.531l-5.5 5.656 1.844-4.25h-2.156zM8.313 12q-0.156-0.281-0.281-0.875-0.188-1.281 0.25-2.438 1.031-2.281 3.469-2.906 0.438-0.656 0.938-1.219l-0.063-0.125q-0.438-1.063-1.281-1.906-0.469-0.438-0.969-0.781 0.031 0.344 0.031 0.656 0 2.063-0.844 3.688-0.406 0.875-1.406 1.875-2.281 2.281-5.531 2.281-0.438 0-0.906-0.031 0.375 0.531 0.875 1.063 0.531 0.531 1.125 0.906l0.063 0.031q0.688 0.438 1.625 0.688 1.156-0.813 2.906-0.906zM5.719 23.156q-4.156-0.031-4.375-3.594v-0.094q0.031-2.156 2.219-3.375 0.188-1.125 0.719-2.031h-0.031q-0.688-0.25-1.313-0.656-0.688-0.438-1.313-1.063-1.094-1.094-1.469-2.281-0.156-0.469-0.156-0.781 0-0.25 0.094-0.406 0.125-0.344 0.5-0.438 0.344-0.094 0.625 0.094l0.25 0.094q0.719 0.219 1.563 0.219 2.469 0 4.156-1.719 1.719-1.719 1.719-4.219 0-0.719-0.125-1.344l-0.063-0.281q-0.094-0.375-0.094-0.469-0.031-0.375 0.281-0.656 0.219-0.156 0.5-0.156 0.344 0 0.719 0.156 1.344 0.563 2.156 1.5 0.844 0.844 1.344 1.875l0.031 0.063q1.188-0.938 2.406-1.281 0.938-0.313 2.469-0.375h0.219q3.25 0 5.313 2 1.031 1 1.594 1.906 1.656 0.063 2.969 1.219 1.063 1.063 1.313 2.75 0.125 1.969-0.969 3.313l-0.031 0.031q0 0.031 0.031 0.031 1.656 1.781 1.656 3.844 0 4.219-4.094 5.875-0.875 0.219-2.5 0.25h-18.313z"></path>
</svg>
