<!-- Generated by IcoMoon.io -->
<svg version="1.1" xmlns="http://www.w3.org/2000/svg" width="32" height="32" viewBox="0 0 32 32">
<path fill="#444" d="M9.25 14.5q-0.625-0.031-0.625-0.875 0.063-0.813 0.188-1.406-0.969 0.031-1.625 0.625-1.063 1.031-0.875 2.594-0.969 0.219-1.438 0.75-0.531 0.594-0.531 1.406 0.094 0.781 0.594 1.344 0.719 0.594 1.469 0.594h17.031q2.875 0 3.969-3l0.125-0.906q0.031-2.281-2.125-3.469-0.906-0.438-1.906-0.469-1.969 0-3.406 1.906-0.5 0.406-0.906 0.063-0.438-0.344-0.219-0.938 0.938-1.594 3.156-2.344-0.656-1.094-2.125-2.063-1.438-0.844-2.938-0.844h-0.688q-3.844 0.344-5.531 3.25-0.719 1.438-0.813 3-0.063 0.813-0.781 0.781zM14.469 6.406q1-0.25 2.125-0.313h0.219q3 0 5.375 2.094 0.813 0.813 1.75 2.156 1.875 0.063 3.563 1.594 1.469 1.594 1.469 3.438 0 3.75-3.656 5.25-0.781 0.188-2.219 0.219h-16.188q-3.719-0.031-3.906-3.25v-0.063q0.031-1.969 1.969-3 0.031-0.125 0.031-0.219-1.906-0.5-3.375-1.969-1.094-1.094-1.469-2.281-0.156-0.469-0.156-0.781 0-0.25 0.094-0.406 0.125-0.344 0.5-0.438 0.344-0.094 0.625 0.094l0.25 0.094q0.719 0.219 1.563 0.219 2.5 0 4.188-1.719 1.719-1.719 1.719-4.219 0-0.719-0.125-1.344l-0.063-0.281q-0.094-0.375-0.094-0.469-0.031-0.375 0.281-0.656 0.219-0.156 0.5-0.156 0.344 0 0.719 0.156 1.344 0.563 2.156 1.5 1.969 1.969 2.156 4.75zM5.5 12.906q0.063-0.125 0.156-0.25 1.125-1.656 3.531-1.781 0.344-0.844 0.969-1.625 0.969-1.344 2.969-2.375 0-2.563-1.75-4.344-0.469-0.438-0.969-0.781 0.031 0.344 0.031 0.656 0 3.313-2.25 5.563-2.281 2.281-5.563 2.281-0.438 0-0.906-0.031 0.375 0.531 0.875 1.063 1.25 1.25 2.906 1.625zM16 25.969l0.531-0.906q0.188-0.313 0.5-0.375t0.594 0.094q0.281 0.188 0.344 0.469 0.094 0.313-0.063 0.594l-0.531 0.906h1q0.375 0.031 0.563 0.25 0.219 0.25 0.25 0.563 0 0.344-0.219 0.563-0.25 0.219-0.563 0.219h-1.031l0.5 0.938q0.188 0.281 0.094 0.594t-0.375 0.469q-0.156 0.094-0.375 0.094-0.094 0-0.188-0.031-0.313-0.063-0.563-0.344l-0.5-0.906-0.5 0.906q-0.188 0.281-0.5 0.344-0.094 0.031-0.188 0.031-0.219 0-0.375-0.094-0.313-0.156-0.406-0.469t0.094-0.625l0.563-0.906h-1.125q-0.313 0-0.531-0.219-0.219-0.25-0.219-0.531 0-0.344 0.219-0.594t0.563-0.25h1.094l-0.563-0.906q-0.156-0.281-0.063-0.594 0.125-0.313 0.406-0.5 0.25-0.125 0.563-0.063t0.469 0.375z"></path>
</svg>
