<!-- Generated by IcoMoon.io -->
<svg version="1.1" xmlns="http://www.w3.org/2000/svg" width="32" height="32" viewBox="0 0 32 32">
<path fill="#444" d="M3.219 26.375q-0.219-0.25-0.219-0.563t0.219-0.531q0.25-0.25 0.563-0.25h22.844q0.344 0 0.563 0.219 0.219 0.25 0.219 0.563t-0.219 0.531q-0.219 0.25-0.563 0.25h-22.844q-0.313 0-0.563-0.219zM4.813 23.25q-0.219-0.25-0.219-0.563t0.219-0.531q0.25-0.25 0.563-0.25h22.844q0.344 0 0.563 0.219 0.219 0.25 0.219 0.563t-0.219 0.531q-0.219 0.25-0.563 0.25h-22.844q-0.313 0-0.563-0.219zM10.813 15.563q0.375 0.531 0.875 1.063 1.781 1.781 4.375 1.781t4.375-1.781 1.781-4.375-1.75-4.375q-0.469-0.438-0.969-0.781 0.031 0.344 0.031 0.656 0 3.313-2.25 5.563-2.281 2.281-5.563 2.281-0.438 0-0.906-0.031zM17.906 6.906l-0.031-0.094-0.094-0.344-0.031-0.313q-0.031-0.375 0.281-0.656 0.219-0.125 0.438-0.156h0.094q0.313 0 0.656 0.156 1.375 0.563 2.188 1.5 2.188 2.156 2.188 5.344 0 3.156-2.156 5.344-2.188 2.188-5.375 2.188-3.156 0-5.344-2.188-1.094-1.094-1.469-2.281-0.156-0.469-0.156-0.781 0-0.25 0.094-0.406 0.125-0.344 0.5-0.438 0.344-0.094 0.625 0.094l0.25 0.094q0.719 0.219 1.563 0.219 2.5 0 4.188-1.719 1.719-1.719 1.719-4.219 0-0.719-0.125-1.344z"></path>
</svg>
