<!-- Generated by IcoMoon.io -->
<svg version="1.1" xmlns="http://www.w3.org/2000/svg" width="32" height="32" viewBox="0 0 32 32">
<path fill="#444" d="M9.281 17.5q-0.625-0.031-0.625-0.875 0.063-0.813 0.188-1.406-0.969 0.031-1.625 0.625-1.063 1.031-0.875 2.594-0.969 0.219-1.438 0.75-0.531 0.594-0.531 1.406 0.094 0.781 0.594 1.344 0.719 0.594 1.469 0.594h17.031q2.875 0 3.969-3l0.125-0.906q0.031-2.281-2.125-3.469-0.906-0.438-1.906-0.469-1.969 0-3.406 1.906-0.5 0.406-0.906 0.063-0.438-0.344-0.219-0.938 0.938-1.594 3.156-2.344-0.656-1.094-2.125-2.063-1.438-0.844-2.938-0.844h-0.688q-3.844 0.344-5.531 3.25-0.719 1.438-0.813 3-0.063 0.813-0.781 0.781zM23.563 7.125q0.719 0.688 1.094 1.313 1.438 0.063 2.594 1.125 1 0.938 1.219 2.469 0.094 1.75-0.906 2.938l0.063 0.063q1.375 1.531 1.375 3.344 0 3.75-3.656 5.25-0.781 0.188-2.219 0.219h-16.188q-3.719-0.031-3.906-3.25v-0.063q0.031-1.969 1.969-3 0.156-1.063 0.688-1.875 1.125-1.656 3.531-1.781l0.063-0.125q0-0.063-0.031-0.125-0.031-0.094-0.063-0.25-0.281-1.281 0.188-2.5 0.938-2 3.063-2.469 0.563-1.094 1.406-1.844 0.875-0.781 2.188-1.219 1.281-0.344 2.281-0.344h0.188q2.906 0 4.75 1.813zM10.531 11.969q0.875-1.219 2.688-2.125 1.594-0.688 3.625-0.75 3 0 5.375 2.094 0.813 0.813 1.75 2.156 1.281 0.031 2.531 0.781 0.375-0.5 0.5-1.031 0.156-0.844 0.031-1.344-0.344-1.344-1.563-1.813-0.469-0.219-1.125-0.219-0.656 0.031-1.094 0.313-0.594 0.438-1.063 0.031-0.344-0.438 0-0.906 0.406-0.375 0.875-0.531-0.25-0.375-0.656-0.781-0.438-0.406-1.063-0.844-1.156-0.688-2.844-0.719-1.906-0.063-3.219 0.813-1.344 0.938-1.969 2.438-0.563 0.063-1.063 0.281-0.594 0.219-1.188 0.875-0.469 0.625-0.531 1.281z"></path>
</svg>
