<!-- Generated by IcoMoon.io -->
<svg version="1.1" xmlns="http://www.w3.org/2000/svg" width="32" height="32" viewBox="0 0 32 32">
<path fill="#444" d="M1 16.5q-0.188-0.188-0.188-0.469 0-0.25 0.188-0.438t0.438-0.188h2.875q0.25 0 0.406 0.188 0.188 0.188 0.188 0.438t-0.156 0.438q-0.156 0.219-0.406 0.219h-2.906q-0.25 0-0.438-0.188zM20.656 8.469q0 0.25-0.156 0.406l-1.688 1.75q-0.219 0.156-0.469 0.156-0.281 0-0.469-0.188-0.156-0.188-0.156-0.438 0-0.281 0.156-0.438l1.719-1.719q0.188-0.188 0.438-0.188 0.281 0 0.469 0.188 0.156 0.188 0.156 0.469zM4.344 8.438q0-0.25 0.188-0.438 0.156-0.188 0.406-0.188 0.281 0 0.469 0.188l1.719 1.719q0.156 0.156 0.156 0.406 0 0.281-0.156 0.469t-0.438 0.188-0.469-0.156l-1.688-1.75q-0.188-0.156-0.188-0.438zM12.031 4.5q0.188-0.188 0.438-0.188 0.281 0 0.469 0.188t0.188 0.438v2.844q0 0.25-0.188 0.438t-0.438 0.188-0.438-0.156q-0.188-0.188-0.188-0.438v-2.875q0-0.25 0.156-0.438zM4.344 23.625q0-0.25 0.188-0.438l1.688-1.719q0.188-0.156 0.469-0.156t0.438 0.188q0.156 0.156 0.156 0.406 0 0.281-0.156 0.469l-1.719 1.719q-0.188 0.156-0.438 0.156-0.281 0-0.438-0.156-0.188-0.188-0.188-0.469zM14.844 16.031q0.813-0.906 2.188-1.594 0.688-0.313 1.281-0.469 0.875-0.219 1.875-0.281h0.219q1 0 1.906 0.25 1.531 0.438 2.844 1.594 0.75 0.75 1.531 1.875 0.563 0.031 1.125 0.219 0.219 0.063 0.438 0.156 0.344 0.156 0.688 0.375 0.344-0.438 0.438-0.906 0.156-0.75 0.031-1.188-0.281-1.188-1.375-1.594-0.406-0.188-1-0.188-0.563 0.031-0.969 0.281-0.5 0.375-0.938 0-0.281-0.375 0-0.781 0.375-0.344 0.781-0.469-0.469-0.719-1.5-1.438-1.031-0.625-2.531-0.625-0.813-0.031-1.5 0.156-0.563 0.156-1.438 0.656-1.094 0.75-1.656 2.063-0.5 0.063-0.938 0.25-0.531 0.188-1.063 0.781-0.313 0.438-0.438 0.875zM20.156 10.281q0.875-0.188 1.563-0.188h0.156q2.563 0 4.188 1.625 0.844 0.75 1.25 1.438 1.281 0.031 2.313 0.969 0.875 0.844 1.063 2.188 0.094 1.563-0.813 2.594 1.281 1.375 1.281 3 0 2.063-1.219 3.344-0.125 0.156-0.281 0.281-0.719 0.625-1.75 1.063-0.688 0.156-1.969 0.188h-14.25q-3.313-0.031-3.5-2.906v-0.094q0.031-1.438 1.219-2.313-0.281-0.156-0.531-0.344-0.438-0.313-0.813-0.688-1.813-1.781-1.813-4.406 0-2.594 1.781-4.375 1.813-1.813 4.406-1.813t4.406 1.781q0.156 0.156 0.313 0.344l0.063 0.063q0.25-0.281 0.531-0.531 0.781-0.688 2-1.094 0.156-0.063 0.406-0.125zM16.375 13.156l-0.125-0.188q-0.188-0.25-0.344-0.406-1.406-1.375-3.5-1.375-2.031 0-3.438 1.375-1.406 1.406-1.406 3.469 0 2.031 1.406 3.438 0.344 0.344 0.719 0.625l0.438 0.25q0.156-0.469 0.438-0.844 0.813-1.281 2.5-1.563 0.281-0.031 0.594-0.063h0.063q-0.063-0.188-0.094-0.344-0.25-1.125 0.156-2.219 0.813-1.688 2.594-2.156zM14.969 18.375q-0.406 1.031-0.469 2.094-0.063 0.75-0.75 0.75-0.594-0.031-0.594-0.844 0.031-0.719 0.125-1.156-0.719 0-1.281 0.5-0.938 0.875-0.75 2.313-0.906 0.188-1.313 0.625-0.438 0.5-0.438 1.219 0.063 0.656 0.5 1.125 0.594 0.5 1.25 0.5h14.969q2.5 0 3.438-2.563l0.125-0.813q0.031-1.969-1.844-3-0.781-0.375-1.656-0.406-1.719 0-2.938 1.656-0.469 0.406-0.906 0.094-0.406-0.344-0.188-0.906 0.844-1.438 2.75-2.094-0.563-0.875-1.844-1.719-1.219-0.719-2.531-0.719h-0.625q-3.156 0.281-4.656 2.594-0.188 0.344-0.375 0.75z"></path>
</svg>
