<!-- Generated by IcoMoon.io -->
<svg version="1.1" xmlns="http://www.w3.org/2000/svg" width="32" height="32" viewBox="0 0 32 32">
<path fill="#444" d="M14.844 16.031q0.813-0.906 2.188-1.594 0.688-0.313 1.281-0.469 0.875-0.219 1.875-0.281h0.219q1 0 1.906 0.25 1.531 0.438 2.844 1.594 0.75 0.75 1.531 1.875 0.563 0.031 1.125 0.219 0.219 0.063 0.438 0.156 0.344 0.156 0.688 0.375 0.344-0.438 0.438-0.906 0.156-0.75 0.031-1.188-0.281-1.188-1.375-1.594-0.406-0.188-1-0.188-0.563 0.031-0.969 0.281-0.5 0.375-0.938 0-0.281-0.375 0-0.781 0.375-0.344 0.781-0.469-0.469-0.719-1.5-1.438-1.031-0.625-2.531-0.625-0.813-0.031-1.5 0.156-0.563 0.156-1.438 0.656-1.094 0.75-1.656 2.063-0.5 0.063-0.938 0.25-0.531 0.188-1.063 0.781-0.313 0.438-0.438 0.875zM9.938 22.656q-0.438 0.5-0.438 1.219 0.063 0.656 0.5 1.125 0.594 0.5 1.25 0.5h14.969q2.5 0 3.438-2.563l0.125-0.813q0.031-1.969-1.844-3-0.781-0.375-1.656-0.406-1.719 0-2.938 1.656-0.469 0.406-0.906 0.094-0.406-0.344-0.188-0.906 0.844-1.438 2.75-2.094-0.563-0.875-1.844-1.719-1.219-0.719-2.531-0.719h-0.625q-3.156 0.281-4.656 2.594-0.188 0.344-0.375 0.75-0.406 1.031-0.469 2.094-0.063 0.75-0.75 0.75-0.594-0.031-0.594-0.844 0.031-0.719 0.125-1.156-0.719 0-1.281 0.5-0.375 0.344-0.5 0.625-0.375 0.719-0.25 1.688-0.906 0.188-1.313 0.625zM11.688 18.406q0.594-0.344 1.375-0.469 0.281-0.031 0.594-0.063h0.063q-0.063-0.188-0.094-0.344-0.25-1.125 0.156-2.219 0.813-1.688 2.594-2.156l0.125-0.188q0.188-0.25 0.344-0.5 0.469-0.625 0.875-0.938-0.281-2.156-1.75-3.656-0.469-0.438-0.969-0.781 0.031 0.344 0.031 0.656 0 3.313-2.25 5.563-2.281 2.281-5.563 2.281-0.438 0-0.906-0.031 0.375 0.531 0.875 1.063 1.781 1.781 4.438 1.813zM10.375 19.781q-2.406-0.344-4.156-2.094-1.094-1.094-1.469-2.281-0.156-0.469-0.156-0.781 0-0.25 0.094-0.406 0.125-0.344 0.5-0.438 0.344-0.094 0.625 0.094l0.25 0.094q0.719 0.219 1.563 0.219 2.5 0 4.188-1.719 1.719-1.719 1.719-4.219 0-0.719-0.125-1.344l-0.031-0.094-0.094-0.344-0.031-0.313q-0.031-0.375 0.281-0.656 0.219-0.125 0.438-0.156h0.094q0.313 0 0.656 0.156 1.375 0.563 2.188 1.5 1.594 1.563 2.031 3.719 0.375-0.156 0.813-0.313 0.156-0.063 0.406-0.125 0.875-0.188 1.563-0.188h0.156q2.563 0 4.188 1.625 0.844 0.75 1.25 1.438 1.281 0.031 2.313 0.969 0.875 0.844 1.063 2.188 0.094 1.563-0.813 2.594 1.281 1.375 1.281 3 0 2.063-1.219 3.344-0.125 0.156-0.281 0.281-0.719 0.625-1.75 1.063-0.688 0.156-1.969 0.188h-14.25q-3.313-0.031-3.5-2.906v-0.094q0.031-1.375 1.125-2.25 0.281-0.219 0.656-0.375 0.031-0.406 0.156-0.813 0.063-0.219 0.188-0.438z"></path>
</svg>
