<!-- Generated by IcoMoon.io -->
<svg version="1.1" xmlns="http://www.w3.org/2000/svg" width="32" height="32" viewBox="0 0 32 32">
<path fill="#444" d="M13.75 21.219q-0.594-0.031-0.594-0.844 0.031-0.719 0.125-1.156-0.719 0-1.281 0.5-0.938 0.875-0.75 2.313-0.906 0.188-1.313 0.625-0.438 0.5-0.438 1.219 0.063 0.656 0.5 1.125 0.594 0.5 1.25 0.5h14.969q2.5 0 3.438-2.563l0.125-0.813q0.031-1.969-1.844-3-0.781-0.375-1.656-0.406-1.719 0-2.938 1.656-0.469 0.406-0.906 0.094-0.406-0.344-0.188-0.906 0.844-1.438 2.75-2.094-0.563-0.875-1.844-1.719-1.219-0.719-2.531-0.719h-0.625q-3.313 0.281-4.781 2.813-0.625 1.281-0.719 2.625-0.063 0.75-0.75 0.75zM10.375 19.781h-0.031q-2.375-0.344-4.125-2.094-1.094-1.094-1.469-2.281-0.156-0.469-0.156-0.781 0-0.25 0.094-0.406 0.125-0.344 0.5-0.438 0.344-0.094 0.625 0.094l0.25 0.094q0.719 0.219 1.563 0.219 2.5 0 4.188-1.719 1.719-1.719 1.719-4.219 0-0.719-0.125-1.344l-0.031-0.094-0.094-0.344-0.031-0.313q-0.031-0.375 0.281-0.656 0.219-0.125 0.438-0.156h0.094q0.313 0 0.656 0.156 1.375 0.563 2.188 1.5 2.188 2.156 2.188 5.344 0 0.75-0.125 1.469v0.031q0.594-0.125 1.219-0.156h0.219q2.656 0 4.75 1.844 0.75 0.75 1.531 1.875 1.656 0.094 3.156 1.438 1.313 1.406 1.313 3.063 0 3.344-3.25 4.688-0.688 0.156-1.969 0.188h-14.25q-3.313-0.031-3.5-2.906v-0.094q0.031-1.438 1.219-2.313 0.281-0.188 0.563-0.313 0.031-0.406 0.156-0.813 0.094-0.313 0.25-0.563zM17.406 14.281v-0.031q0.313-0.938 0.313-2 0-2.594-1.75-4.375-0.469-0.438-0.969-0.781 0.031 0.344 0.031 0.656 0 3.313-2.25 5.563-2.281 2.281-5.563 2.281-0.438 0-0.906-0.031 0.375 0.531 0.875 1.063 1.781 1.781 4.375 1.781h0.156q0.781-0.469 1.938-0.531 0.313-0.688 0.844-1.375 0.813-1.188 2.531-2.063 0.188-0.094 0.375-0.156z"></path>
</svg>
