<!-- Generated by IcoMoon.io -->
<svg version="1.1" xmlns="http://www.w3.org/2000/svg" width="32" height="32" viewBox="0 0 32 32">
<path fill="#444" d="M23.719 16.469q0.875 0.219 1.469 0.906 0.594 0.719 0.688 1.625 0.031 0.156 0.031 0.313 0 0.719-0.344 1.375-0.438 0.813-1.25 1.219-0.438 0.219-0.844 0.25-0.438 0.063-0.781 0.063h-21.938q-0.313 0-0.531-0.219t-0.219-0.531 0.219-0.531 0.531-0.219h21.938q0.313 0 0.531-0.031t0.406-0.125q0.406-0.188 0.594-0.563 0.219-0.406 0.188-0.844-0.063-0.469-0.344-0.781-0.281-0.344-0.719-0.469-0.438-0.094-0.844 0.063t-0.656 0.5q-0.219 0.313-0.531 0.344t-0.563-0.156-0.313-0.469 0.156-0.594q0.406-0.531 1-0.844 0.594-0.344 1.25-0.375 0.469-0.031 0.875 0.094zM14.656 23.313h3.625l-1.906 2.906h2.531l-5.5 5.656 1.844-4.25h-2.156zM9.75 24.875q1.719 2.375 1.625 3 0 0.688-0.469 1.094-0.469 0.438-1.156 0.438t-1.156-0.406q-0.469-0.438-0.469-1.125-0.063-0.625 1.625-3zM21.625 26.094q2.125 2.938 2.031 3.719 0 0.781-0.563 1.313-0.625 0.531-1.469 0.531t-1.438-0.531-0.594-1.313q-0.094-0.781 2.031-3.719zM10.531 8.781q0.938-1.063 2.563-1.906 0.656-0.281 1.375-0.469 1-0.25 2.125-0.313h0.219q3 0 5.375 2.094 0.813 0.813 1.75 2.156 1.281 0.031 2.5 0.781v-0.031l0.031 0.031q0.375-0.5 0.5-1.031 0.156-0.844 0.031-1.344-0.344-1.344-1.563-1.813-0.469-0.219-1.125-0.219-0.656 0.031-1.094 0.313-0.594 0.438-1.063 0.031-0.344-0.438 0-0.906 0.406-0.375 0.875-0.531-0.531-0.813-1.719-1.625-1.156-0.688-2.844-0.719-1.906-0.063-3.219 0.813-1.344 0.938-1.969 2.438-0.563 0.063-1.063 0.281-0.594 0.219-1.188 0.875-0.406 0.531-0.5 1.094zM10.656 11.094q-0.531 1.281-0.625 2.625-0.063 0.813-0.781 0.781-0.625-0.031-0.625-0.875 0.063-0.813 0.188-1.406-0.969 0.031-1.625 0.625-1.063 1.031-0.875 2.594-0.969 0.219-1.438 0.75-0.531 0.594-0.531 1.406h9.25q0.281 0 0.5-0.031 0.25-0.031 0.438-0.125 0.375-0.188 0.594-0.563 0.219-0.406 0.156-0.844-0.031-0.438-0.313-0.781t-0.719-0.469q-0.438-0.094-0.844 0.063t-0.688 0.5q-0.219 0.313-0.5 0.313-0.313 0.031-0.563-0.125-0.25-0.188-0.313-0.469t0.156-0.594q0.406-0.531 1-0.844 0.594-0.344 1.25-0.375 0.469 0 0.875 0.094 0.875 0.219 1.469 0.906 0.594 0.719 0.688 1.625t-0.344 1.688q-0.438 0.813-1.25 1.219-0.406 0.219-0.813 0.25-0.438 0.063-0.781 0.063h-12.844q-0.313 0-0.531-0.219t-0.219-0.531 0.219-0.531 0.531-0.219h2.25v-0.063q0.031-1.969 1.969-3 0.156-0.969 0.531-1.625 0.063-0.125 0.156-0.25 1.125-1.656 3.531-1.781 0.031-0.063 0.063-0.156l-0.031-0.094q-0.031-0.094-0.063-0.25-0.281-1.281 0.188-2.5 0.938-2 3.063-2.469 0.563-1.094 1.406-1.844 0.875-0.781 2.188-1.219 0.781-0.219 1.094-0.25 0.625-0.094 1.188-0.094h0.188q2.906 0 4.75 1.813 0.938 0.875 1.406 1.625 1.438 0.063 2.594 1.125 1 0.938 1.219 2.469 0.094 1.75-0.906 2.938l0.031 0.031q1.406 1.563 1.406 3.375 0 1.906-0.938 3.219-0.094 0.125-0.25 0.25-0.281 0.25-0.594 0.219-0.406-0.031-0.594-0.375-0.156-0.344 0.125-0.813 0.438-0.688 0.563-1 0.125-0.344 0.25-1.25 0.031-2.281-2.125-3.469-0.906-0.438-1.906-0.469-1.969 0-3.406 1.906-0.5 0.406-0.906 0.063-0.438-0.344-0.219-0.938 0.938-1.594 3.156-2.344-0.656-1.094-2.125-2.063-1.438-0.844-2.938-0.844h-0.688q-3.688 0.344-5.406 3.031l-0.125 0.219z"></path>
</svg>
