<!-- Generated by IcoMoon.io -->
<svg version="1.1" xmlns="http://www.w3.org/2000/svg" width="32" height="32" viewBox="0 0 32 32">
<path fill="#444" d="M15.969 21.938q2.125 2.938 2.031 3.75 0 0.781-0.563 1.313-0.594 0.531-1.469 0.531-0.844 0-1.406-0.531-0.625-0.531-0.625-1.313-0.094-0.813 2.031-3.75zM5.719 21.25q-4.156-0.031-4.375-3.594v-0.094q0.031-2.156 2.219-3.375 0.188-1.188 0.781-2.094 1.25-1.844 3.969-2 0.438-0.969 1.125-1.844 1.094-1.563 3.406-2.719 1.656-0.719 3.813-0.844h0.25q3.375 0 6.063 2.344 0.938 0.938 1.969 2.438 2.156 0.125 4.031 1.813 1.656 1.781 1.656 3.844 0 4.219-4.094 5.875-0.875 0.219-2.5 0.25h-18.313z"></path>
</svg>
