<!-- Generated by IcoMoon.io -->
<svg version="1.1" xmlns="http://www.w3.org/2000/svg" width="32" height="32" viewBox="0 0 32 32">
<path fill="#444" d="M1.563 29.5q-0.219-0.25-0.219-0.563t0.219-0.531q0.25-0.25 0.563-0.25h27.781q0.344 0 0.563 0.219 0.219 0.25 0.219 0.563t-0.219 0.531q-0.219 0.25-0.563 0.25h-27.781q-0.313 0-0.563-0.219zM26.188 26.063q0-1.906-0.75-3.594-0.813-1.688-2.188-2.969-1.406-1.25-3.25-1.969-1.875-0.719-3.969-0.719t-3.938 0.719q-1.875 0.719-3.25 1.969-1.406 1.281-2.219 2.969-0.781 1.688-0.781 3.594 0 0.375-0.25 0.625t-0.625 0.25q-0.344 0-0.594-0.25t-0.25-0.625q0-2.281 0.906-4.281 0.969-1.969 2.563-3.469 1.625-1.5 3.75-2.375 2.219-0.844 4.688-0.844t4.625 0.844q2.188 0.875 3.781 2.375 1.625 1.5 2.563 3.469 0.906 2 0.906 4.281 0 0.375-0.25 0.625t-0.594 0.25-0.625-0.25q-0.25-0.25-0.25-0.625zM25.188 26.063q0 0.375-0.25 0.625-0.313 0.25-0.625 0.25-0.344 0-0.594-0.25t-0.25-0.625q0-1.313-0.625-2.5-0.563-1.219-1.563-2.063-1.031-0.906-2.375-1.406-1.344-0.531-2.875-0.531t-2.906 0.5q-1.344 0.531-2.344 1.438-1.031 0.844-1.594 2.031-0.563 1.219-0.563 2.531 0 0.375-0.281 0.625-0.25 0.25-0.594 0.25t-0.594-0.25q-0.281-0.25-0.281-0.625 0-1.719 0.719-3.219 0.719-1.469 1.969-2.563 1.219-1.156 2.906-1.75 1.656-0.688 3.563-0.688 1.875 0 3.563 0.656 1.656 0.625 2.906 1.75t1.938 2.594q0.75 1.5 0.75 3.219zM1.531 14.406q-0.188-0.156-0.188-0.438 0-0.25 0.188-0.438t0.438-0.188h2.875q0.25 0 0.406 0.188 0.188 0.188 0.188 0.438t-0.156 0.438-0.406 0.188h-2.906q-0.25 0-0.438-0.188zM21.031 6.813l-1.688 1.719q-0.219 0.188-0.469 0.188-0.281 0-0.469-0.219-0.156-0.156-0.156-0.406 0-0.281 0.156-0.438l1.719-1.75q0.188-0.156 0.438-0.156 0.281 0 0.469 0.156 0.156 0.188 0.156 0.438 0 0.281-0.156 0.469zM4.875 6.375q0-0.281 0.188-0.469 0.156-0.156 0.406-0.156 0.281 0 0.469 0.156l1.719 1.75q0.156 0.156 0.156 0.406 0 0.281-0.156 0.438-0.156 0.219-0.438 0.219t-0.469-0.188l-1.688-1.719q-0.188-0.188-0.188-0.438zM12.563 2.438q0.188-0.219 0.438-0.219 0.281 0 0.469 0.188 0.188 0.219 0.188 0.469v2.844q0 0.25-0.188 0.438t-0.438 0.188-0.438-0.156q-0.188-0.188-0.188-0.438v-2.875q0-0.25 0.156-0.438zM19.125 12.625l0.125 0.031 0.375 0.063q1.094 0.25 2.125 0.688 2.656 1.063 4.656 2.969 2 1.875 3.125 4.344 1.156 2.531 1.156 5.344 0 0.375-0.25 0.625t-0.625 0.25q-0.344 0-0.594-0.25t-0.25-0.625q0-2.469-1.031-4.625-0.969-2.25-2.719-3.875-1.781-1.656-4.156-2.563-1.719-0.688-3.563-0.875-0.75-0.063-1.469-0.063-2.688 0-5.031 0.938-0.813 0.281-1.469 0.656-1.469 0.813-2.656 1.906-1.781 1.625-2.781 3.844-1 2.188-1 4.656 0 0.375-0.281 0.625-0.25 0.25-0.594 0.25t-0.625-0.25q-0.25-0.25-0.25-0.625 0-2.813 1.156-5.344 1.156-2.469 3.156-4.406 0.563-0.5 1.219-0.969v-0.031l0.125-0.094q-0.125-0.594-0.125-1.25 0-2.594 1.781-4.375 1.813-1.813 4.406-1.813t4.375 1.813q1.313 1.281 1.688 3.031zM8.219 14.469q0.25-0.125 0.531-0.281 1.313-0.719 2.531-1.063 2.094-0.75 4.531-0.75h0.531q0.781 0.031 1.313 0.063h0.063q-0.344-1.063-1.188-1.906-1.406-1.406-3.5-1.406-2.031 0-3.438 1.375-1.406 1.406-1.406 3.469 0 0.25 0.031 0.5z"></path>
</svg>
