<!-- Generated by IcoMoon.io -->
<svg version="1.1" xmlns="http://www.w3.org/2000/svg" width="32" height="32" viewBox="0 0 32 32">
<path fill="#444" d="M1.031 12.75q-0.188-0.188-0.188-0.469 0-0.25 0.188-0.438t0.438-0.188h2.875q0.25 0 0.406 0.188 0.188 0.188 0.188 0.438t-0.156 0.438q-0.156 0.219-0.406 0.219h-2.906q-0.25 0-0.438-0.188zM20.688 4.719q0 0.25-0.156 0.406l-1.688 1.75q-0.219 0.156-0.469 0.156-0.281 0-0.469-0.188-0.156-0.188-0.156-0.438 0-0.281 0.156-0.438l1.719-1.719q0.188-0.188 0.438-0.188 0.281 0 0.469 0.188 0.156 0.188 0.156 0.469zM4.375 4.688q0-0.25 0.188-0.438 0.156-0.188 0.406-0.188 0.281 0 0.469 0.188l1.719 1.719q0.156 0.156 0.156 0.406 0 0.281-0.156 0.469t-0.438 0.188-0.469-0.156l-1.688-1.75q-0.188-0.156-0.188-0.438zM12.063 0.75q0.188-0.188 0.438-0.188 0.281 0 0.469 0.188t0.188 0.438v2.844q0 0.25-0.188 0.438t-0.438 0.188-0.438-0.156q-0.188-0.188-0.188-0.438v-2.875q0-0.25 0.156-0.438zM4.375 19.875q0-0.25 0.188-0.438l1.688-1.719q0.188-0.156 0.469-0.156t0.438 0.188q0.156 0.156 0.156 0.406 0 0.281-0.156 0.469l-1.719 1.719q-0.188 0.156-0.438 0.156-0.281 0-0.438-0.156-0.188-0.188-0.188-0.469zM13.781 17.469q-0.594-0.031-0.594-0.844 0.031-0.719 0.125-1.156-0.719 0-1.281 0.5-0.938 0.875-0.75 2.313-0.906 0.188-1.313 0.625-0.438 0.5-0.438 1.219 0.063 0.656 0.5 1.125 0.594 0.5 1.25 0.5h14.969q2.5 0 3.438-2.563l0.125-0.813q0.031-1.969-1.844-3-0.781-0.375-1.656-0.406-1.719 0-2.938 1.656-0.469 0.406-0.906 0.094-0.406-0.344-0.188-0.906 0.844-1.438 2.75-2.094-0.563-0.875-1.844-1.719-1.219-0.719-2.531-0.719h-0.625q-3.313 0.281-4.781 2.813-0.625 1.281-0.719 2.625-0.063 0.75-0.75 0.75zM14.719 12.5q0.813-1.031 2.344-1.813 0.594-0.281 1.281-0.469 0.875-0.219 1.875-0.281h0.219q2.656 0 4.75 1.844 0.75 0.75 1.531 1.875 1.156 0.063 2.219 0.719l0.031-0.031q0.281-0.375 0.438-0.844 0.125-0.719 0-1.219-0.313-1.156-1.344-1.531-0.375-0.156-1.094-0.188-0.469-0.031-0.906 0.25-0.344 0.281-0.813 0.063-0.406-0.406-0.125-0.844 0.375-0.406 0.75-0.5-0.438-0.719-1.469-1.406-1.031-0.594-2.531-0.625-2.625-0.094-4.063 2.188-0.156 0.281-0.25 0.438-0.531-0.031-1.063 0.063-0.625 0.156-1.125 0.688-0.781 0.813-0.656 1.625zM15.938 8.813q-1.406-1.375-3.5-1.375-2.031 0-3.438 1.375l-0.125 0.125q-1.281 1.375-1.281 3.344 0 2.031 1.406 3.438 0.531 0.531 1.156 0.875 0.156-0.469 0.438-0.844 0.969-1.5 3.094-1.625 0.063-0.094 0.094-0.219-0.25-0.594-0.313-1.219v-0.094q0-0.844 0.438-1.656 0.875-1.469 2.375-1.719-0.125-0.156-0.344-0.406zM17.625 7.969q1.031-0.969 2.094-1.281 1.125-0.313 2.031-0.313h0.188q2.563 0 4.156 1.594 0.844 0.781 1.25 1.469 1.281 0.031 2.313 0.969 0.875 0.844 1.063 2.156v0.313q0 1.344-0.719 2.281l-0.031 0.031q1.219 1.375 1.219 2.969 0 3.344-3.25 4.688-0.688 0.156-1.969 0.188h-14.25q-3.313-0.031-3.5-2.906v-0.094q0.031-1.438 1.219-2.313-0.719-0.406-1.344-1.031-1.813-1.781-1.813-4.406 0-2.531 1.719-4.313l0.063-0.063q1.813-1.813 4.406-1.813t4.406 1.781q0.219 0.219 0.406 0.469 0.188-0.219 0.344-0.375zM19.719 25.656q1.875 2.594 1.781 3.313 0 0.688-0.5 1.156t-1.281 0.469q-0.75 0-1.25-0.469-0.531-0.469-0.531-1.156-0.094-0.719 1.781-3.313z"></path>
</svg>
