<!-- Generated by IcoMoon.io -->
<svg version="1.1" xmlns="http://www.w3.org/2000/svg" width="32" height="32" viewBox="0 0 32 32">
<path fill="#444" d="M23 14.313l0.063 0.063q0.5 0.688 0.656 1.563 1.094-0.219 1.688-0.781 0.531-0.625 0.688-1.125 0.188-0.5 0.25-1.031 0.188-1.875-1.906-3.063-0.938-0.406-1.813-0.5-2.094-0.188-3.531 1.719-0.5 0.406-0.906 0.063-0.438-0.344-0.219-0.938 0.938-1.594 3.156-2.094-0.656-1.031-1.906-1.938-1.5-0.906-3.313-0.844h-0.688q-3.781 0.344-5.375 2.781-0.5 0.781-0.469 1.594 0.031 0.563-0.219 0.75-0.281 0.188-0.531 0.188-1.875 0.344-2.75 1.875-0.469 1.188-0.031 2.594 0.188 0.563 0.719 1.031 1.219 1.063 2.281 0.906 0.063-0.281 0.188-0.594 0.25-0.594 0.906-1.313 0.938-0.969 2.594-1.125 0.938-0.094 1.875 0.313 0.313 0.156 0.594 0.406 0.344 0.469 0 0.906-0.469 0.406-1.063-0.031-0.438-0.281-1.094-0.313-0.656 0-1.125 0.219-1.219 0.469-1.563 1.813-0.125 0.5 0.031 1.344 0.094 0.375 0.281 0.719l0.313 0.344q1.313 1.094 4.813 1.156 0.531 0.031 0.719 0.5 0.094 0.594-0.438 0.844-0.125 0.031-0.219 0.063-1.375 0.344-1.375 1.063 0 0.688 1.156 1.438h1q0.625 0 1.406-0.281 0.781-0.406 1.094-0.781 0.875-0.781 0.531-2.031-0.125-0.5-0.531-1.031-0.375-0.469-0.938-0.688-0.656-0.188-0.625-0.813 0.156-0.531 0.719-0.563 0.313 0.063 0.563 0.188 0.594 0.156 1.125 0.156 0.844-0.156 1.281-0.406 1.219-0.688 1.344-1.656 0.031-0.25 0.031-0.438 0-0.313-0.125-0.719-0.094-0.313-0.25-0.531l-0.219-0.25q-0.563-0.469-0.281-1 0.313-0.469 0.875-0.25 0.313 0.219 0.531 0.469l0.031 0.031v0.031zM8.938 7.125q0.125-0.219 0.469-0.625 1-1.031 2.625-1.719 1.469-0.625 3.625-0.75 3.25-0.125 5.531 2.031 0.813 0.813 1.75 2.094 1.313 0.031 2.563 0.813 0.344-0.469 0.469-0.938 0.156-0.844 0.031-1.344-0.344-1.344-1.563-1.813-0.469-0.219-1.125-0.219-0.656 0.031-1.094 0.313-0.594 0.438-1.063 0.031-0.344-0.438 0-0.906 0.406-0.375 0.875-0.531-0.594-0.75-1.781-1.563-1.156-0.688-2.844-0.719-0.625 0-1.156 0.031-1.469 0.188-2.563 0.906-1.344 0.938-1.969 2.438-0.563 0.063-1.063 0.281-0.594 0.219-1.188 0.875-0.438 0.563-0.531 1.313zM15.313 0.219q0.875-0.188 2.094-0.219 2.906 0 4.75 1.813 0.938 0.875 1.469 1.563 1.438 0.063 2.594 1.125 1 0.938 1.219 2.469 0.094 1.719-0.875 2.844 1.125 1.156 1.125 3-0.031 2-1.375 3.344-1.031 1-2.531 1.219-0.156 0.375-0.406 0.844-0.781 1.281-1.938 1.781-0.719 0.313-1.188 0.375 0.719 1.156 0.563 2.594-0.125 1.063-1.219 2.156-0.969 0.813-2.344 1.031 0.344 0.375 0.5 0.781 0.156 0.469 0.156 1.125-0.031 0.563-0.156 0.813-0.125 0.219-0.313 0.313t-0.344 0.094h-0.094q-0.281-0.031-0.469-0.25-0.125-0.25-0.063-0.688 0.031-0.219 0.031-0.5 0-0.656-0.875-1.25-0.344-0.188-0.719-0.375-1.219-0.688-1.625-1.25-0.406-0.594-0.5-1.344 0.031-1 0.719-1.531-2.281-0.281-3.344-1.031-0.719-0.5-1.094-1.313-0.25-0.594-0.344-1.281-1.625-0.031-2.906-1.094-0.781-0.75-1.219-1.656-0.313-0.844-0.313-1.688 0-0.625 0.094-1.156 0.281-1.313 1.25-2.281 1.031-0.875 2.219-1.25-0.125-0.344-0.188-0.563-0.031-0.125-0.063-0.281-0.281-1.281 0.188-2.5 0.938-2 3.063-2.469 0.563-1.094 1.406-1.844 0.875-0.781 2.188-1.219z"></path>
</svg>
