<!-- Generated by IcoMoon.io -->
<svg version="1.1" xmlns="http://www.w3.org/2000/svg" width="32" height="32" viewBox="0 0 32 32">
<path fill="#444" d="M24.156 8.438q0 0.25-0.156 0.438l-1.688 1.719q-0.219 0.188-0.469 0.188-0.281 0-0.469-0.219-0.156-0.156-0.156-0.406 0-0.281 0.156-0.438l1.719-1.75q0.188-0.156 0.438-0.156 0.281 0 0.469 0.156 0.156 0.188 0.156 0.469zM7.844 8.406q0-0.25 0.188-0.438 0.156-0.156 0.406-0.156 0.281 0 0.469 0.156l1.719 1.75q0.156 0.156 0.156 0.406 0 0.281-0.156 0.438-0.156 0.219-0.438 0.219t-0.469-0.188l-1.688-1.719q-0.188-0.188-0.188-0.469zM15.531 4.5q0.188-0.219 0.438-0.219 0.281 0 0.469 0.188 0.188 0.219 0.188 0.469v2.844q0 0.25-0.188 0.438t-0.438 0.188-0.438-0.156q-0.188-0.188-0.188-0.438v-2.875q0-0.25 0.156-0.438zM15.531 23.844q0.188-0.188 0.438-0.188 0.281 0 0.469 0.188 0.188 0.219 0.188 0.469v2.844q0 0.25-0.188 0.438t-0.438 0.188-0.438-0.156q-0.188-0.188-0.188-0.438v-2.875q0-0.25 0.156-0.469zM23.781 16.5q-0.188-0.188-0.188-0.469 0-0.25 0.188-0.438t0.438-0.188h2.875q0.25 0 0.406 0.188 0.188 0.188 0.188 0.438t-0.156 0.438-0.406 0.188h-2.906q-0.25 0-0.438-0.156zM24.156 23.594q0 0.281-0.156 0.5-0.188 0.156-0.438 0.156-0.281 0-0.469-0.156l-1.719-1.75q-0.156-0.156-0.156-0.406 0-0.281 0.156-0.438 0.188-0.219 0.438-0.219 0.281 0 0.5 0.188l1.688 1.719q0.156 0.156 0.156 0.406zM19.063 21.469l-0.094 0.063q-0.313 0.094-0.469 0.063t-0.344-0.188l-0.125-0.188q-0.125-0.25-0.031-0.469 0.094-0.25 0.344-0.406 0.625-0.344 1.156-0.875 1.375-1.406 1.375-3.438 0-2.063-1.375-3.438-1.406-1.406-3.5-1.406-2.031 0-3.438 1.375-0.625 0.625-1 1.375l-0.156 0.25q-0.156 0.156-0.313 0.219t-0.313 0l-0.094-0.031q-0.281-0.125-0.375-0.375-0.094-0.219 0-0.438 0.469-1.063 1.344-1.938 1.781-1.781 4.375-1.781t4.375 1.781q1.813 1.813 1.813 4.406 0 2.625-1.781 4.406-0.656 0.625-1.375 1.031zM3.219 16.563q-0.219-0.219-0.219-0.531t0.219-0.531 0.531-0.219h10.594q0.313 0 0.531 0.219 0.219 0.25 0.219 0.531 0 0.313-0.219 0.531t-0.531 0.219h-10.594q-0.313 0-0.531-0.219zM3.219 22.781q-0.219-0.219-0.219-0.5 0-0.25 0.219-0.5t0.531-0.25h10.563q0.313 0 0.531 0.25t0.219 0.5q0 0.313-0.219 0.531t-0.531 0.219h-10.563q-0.313 0-0.531-0.25zM6.031 19.688q-0.219-0.25-0.219-0.531 0-0.25 0.219-0.5t0.531-0.25h10.563q0.313 0 0.531 0.25t0.219 0.5q0 0.313-0.219 0.531t-0.531 0.219h-10.563q-0.313 0-0.531-0.219z"></path>
</svg>
