<!-- Generated by IcoMoon.io -->
<svg version="1.1" xmlns="http://www.w3.org/2000/svg" width="32" height="32" viewBox="0 0 32 32">
<path fill="#444" d="M26.281 21.406q0.031 0.094 0.031 0.156 0 0.188-0.125 0.375-0.094 0.156-0.25 0.25-0.188 0.094-0.406 0.094h-0.156q-0.094-0.031-0.156-0.063l-2.563-1.469v2.531q0 0.313-0.219 0.531-0.25 0.219-0.531 0.219t-0.5-0.219-0.219-0.531l0.031-3.375-4.5-2.594v5.219l2.938 1.656q0.281 0.125 0.344 0.406 0.063 0.313-0.063 0.563-0.094 0.188-0.25 0.281-0.188 0.094-0.406 0.094-0.063 0-0.156-0.031l-0.188-0.063-2.219-1.281v2.938q0 0.313-0.219 0.5-0.219 0.219-0.531 0.219-0.25 0-0.469-0.188-0.219-0.219-0.219-0.531v-2.938l-2.25 1.281-0.188 0.063-0.156 0.031q-0.188 0-0.344-0.094-0.188-0.094-0.313-0.281-0.156-0.25-0.063-0.531 0.094-0.313 0.344-0.438l2.969-1.656v-5.219l-4.5 2.594v3.375q0 0.313-0.188 0.531-0.219 0.219-0.531 0.219-0.281 0-0.5-0.219t-0.219-0.531v-2.531l-2.563 1.469q-0.063 0.031-0.156 0.031-0.125 0.031-0.188 0.031-0.188 0-0.344-0.094-0.188-0.094-0.281-0.25-0.125-0.188-0.125-0.375 0-0.094 0.063-0.188 0.063-0.281 0.281-0.438l2.563-1.469-2.219-1.281q-0.25-0.156-0.313-0.438-0.094-0.313 0.063-0.594 0.156-0.25 0.438-0.313 0.313-0.063 0.563 0.063l2.906 1.719 4.5-2.563-4.5-2.625-2.938 1.719q-0.063 0.094-0.125 0.094h-0.219q-0.188 0-0.344-0.063-0.188-0.094-0.281-0.281-0.156-0.25-0.094-0.531 0.094-0.313 0.344-0.469l2.219-1.281-2.563-1.469q-0.219-0.156-0.281-0.438-0.063-0.125-0.063-0.188 0-0.188 0.125-0.375 0.125-0.25 0.406-0.313 0.313-0.094 0.563 0.063l2.563 1.5v-2.625q0-0.313 0.188-0.5 0.219-0.219 0.531-0.219t0.5 0.219q0.219 0.219 0.219 0.5v3.375l4.5 2.625v-5.188l-2.969-1.688q-0.25-0.125-0.344-0.406-0.094-0.313 0.063-0.563t0.438-0.344 0.563 0.094l2.25 1.219v-2.906q0-0.313 0.219-0.5 0.219-0.219 0.469-0.219 0.313 0 0.531 0.188 0.219 0.219 0.219 0.531v2.906l2.219-1.219q0.281-0.188 0.563-0.094 0.313 0.094 0.438 0.344t0.063 0.531q-0.063 0.313-0.344 0.438l-2.938 1.688v5.188l4.5-2.625-0.031-3.375q0-0.281 0.219-0.5t0.5-0.219 0.5 0.188q0.25 0.219 0.25 0.531v2.594l2.563-1.469q0.219-0.156 0.5-0.094 0.313 0.094 0.469 0.344 0.125 0.188 0.125 0.375 0 0.094-0.031 0.188-0.094 0.281-0.344 0.438l-2.531 1.469 2.219 1.281q0.25 0.156 0.313 0.438 0.063 0.313-0.063 0.563-0.125 0.188-0.281 0.25-0.188 0.094-0.375 0.094h-0.156l-0.219-0.094-2.906-1.719-4.469 2.625 4.469 2.563 2.906-1.719q0.281-0.125 0.563-0.063 0.313 0.063 0.469 0.313 0.125 0.281 0.063 0.563-0.063 0.313-0.313 0.469l-2.219 1.281 2.5 1.469q0.281 0.188 0.375 0.469z"></path>
</svg>
