<!-- Generated by IcoMoon.io -->
<svg version="1.1" xmlns="http://www.w3.org/2000/svg" width="32" height="32" viewBox="0 0 32 32">
<path fill="#444" d="M5.719 21.25q-4.156-0.031-4.375-3.594v-0.094q0.031-2.156 2.219-3.375 0.188-1.188 0.781-2.094 1.25-1.844 3.969-2 0.438-0.969 1.125-1.844 1.094-1.563 3.406-2.719 1.656-0.719 3.813-0.844h0.25q3.375 0 6.063 2.344 0.938 0.938 1.969 2.438 2.156 0.125 4.031 1.813 1.656 1.781 1.656 3.844 0 4.219-4.094 5.875-0.875 0.219-2.5 0.25h-18.313zM16.906 24.25q0.344 0.344 0.344 0.844 0 0.531-0.344 0.875-0.375 0.375-0.906 0.375t-0.875-0.344q-0.375-0.375-0.375-0.906 0-0.5 0.344-0.844 0.375-0.406 0.906-0.406t0.906 0.406zM10.594 25.969q0.344 0.375 0.344 0.875t-0.344 0.844q-0.344 0.406-0.875 0.406t-0.875-0.375q-0.375-0.375-0.375-0.875t0.344-0.844q0.375-0.375 0.906-0.375t0.875 0.344zM16 29.5q0.375 0.375 0.375 0.906 0 0.594-0.375 0.969-0.406 0.375-0.938 0.375-0.563 0-0.938-0.375t-0.375-0.969q0-0.531 0.375-0.906t0.938-0.375q0.531 0 0.938 0.375zM21.031 22q0.5 0 0.875 0.375 0.344 0.375 0.344 0.875t-0.375 0.875q-0.344 0.344-0.844 0.344-0.531 0-0.906-0.375-0.344-0.344-0.344-0.844t0.344-0.875q0.375-0.375 0.906-0.375zM12.969 22.219q0.281 0.281 0.281 0.688 0 0.438-0.281 0.719t-0.719 0.281-0.719-0.281-0.281-0.719q0-0.406 0.281-0.688 0.281-0.313 0.719-0.313t0.719 0.313zM22.688 27.75q0.406 0.438 0.406 1.031 0 0.625-0.406 1.063t-1.063 0.438q-0.625 0-1.031-0.406-0.438-0.469-0.438-1.094 0-0.594 0.406-1 0.438-0.438 1.063-0.438 0.656 0 1.063 0.406z"></path>
</svg>
