<!-- Generated by IcoMoon.io -->
<svg version="1.1" xmlns="http://www.w3.org/2000/svg" width="32" height="32" viewBox="0 0 32 32">
<path fill="#444" d="M16 24.063l0.531-0.938q0.156-0.281 0.5-0.344 0.313-0.063 0.594 0.094t0.344 0.438q0.094 0.344-0.063 0.625l-0.531 0.906h1q0.375 0.031 0.563 0.25 0.219 0.25 0.25 0.531 0 0.344-0.219 0.594-0.25 0.219-0.563 0.219h-1.031l0.5 0.938q0.188 0.281 0.094 0.594t-0.375 0.469q-0.156 0.094-0.375 0.094-0.094 0-0.188-0.031-0.313-0.063-0.531-0.344l-0.5-0.906-0.531 0.906q-0.188 0.281-0.5 0.344-0.094 0.031-0.188 0.031-0.219 0-0.375-0.094-0.313-0.156-0.406-0.469t0.094-0.625l0.563-0.906h-1.125q-0.313 0-0.531-0.219-0.219-0.281-0.219-0.563 0-0.313 0.219-0.563t0.563-0.25h1.094l-0.563-0.906q-0.156-0.281-0.063-0.625 0.094-0.313 0.406-0.469 0.25-0.125 0.563-0.063t0.469 0.344zM5.719 21.25q-4.156-0.031-4.375-3.594v-0.094q0.031-2.156 2.219-3.375 0.188-1.188 0.781-2.094 1.25-1.844 3.969-2 0.438-0.969 1.125-1.844 1.094-1.563 3.406-2.719 1.656-0.719 3.813-0.844h0.25q3.375 0 6.063 2.344 0.938 0.938 1.969 2.438 2.156 0.125 4.031 1.813 1.656 1.781 1.656 3.844 0 4.219-4.094 5.875-0.875 0.219-2.5 0.25h-18.313z"></path>
</svg>
