<!-- Generated by IcoMoon.io -->
<svg version="1.1" xmlns="http://www.w3.org/2000/svg" width="32" height="32" viewBox="0 0 32 32">
<path fill="#444" d="M13.469 19.219q-4.406-0.813-4.406-2.563 0.188-1.063 2.5-1.875-4.469-0.781-4.781-2.625 0.063-1.656 3.969-2.188l-2.094-0.438q-5.688-1.438-5.688-3.969 0-3.313 9.469-5 3.281-0.469 6.625-0.469 5.75 0 9.563 1.313 0.219 0.125 0.313 0.344 0.063 0.094 0.063 0.219 0 0.094-0.031 0.188-0.156 0.406-0.688 0.375-3.969-1.188-9.438-1.188-7.125 0-12.281 2.063-2.375 1.188-2.375 2.25 0 0.813 1.938 1.75 4.031 1.75 10.656 1.75 5.25 0 7.875-1.625 0.531-0.313 0.031-0.875-2.031-1.219-6.406-1.219-2.531 0-5.656 0.75-0.25 0.063-0.469-0.063-0.25-0.125-0.313-0.344-0.094-0.281 0.063-0.531 0.156-0.219 0.469-0.313 3.438-0.75 6.188-0.75 5.344 0 7.219 1.844 0.406 0.594 0.406 1.063 0 2.156-5.656 3.031-2.125 0.313-6.469 0.313-2.125 0.219-4.531 0.781-1 0.313-1.063 0.781 0.063 0.75 2.094 1.313 2.344 0.563 5.438 0.563 4.813 0.063 7.781-1.438 0.313-0.125 0.594-0.063t0.375 0.406q0.031 0.406-0.094 0.594-0.188 0.156-0.406 0.25-0.5 0.313-1.813 0.719-1.344 0.438-3.063 0.594-1.719 0.188-4.438 0.188-4.094 0.5-4.094 1.531 0 1.125 4.875 1.438h0.406q2.813 0 3.906-0.469 0.438-0.156 0.656-0.094 0.281 0.094 0.375 0.313 0.094 0.25 0.031 0.406-0.094 0.219-0.219 0.281-0.063 0.063-0.375 0.188-0.75 0.438-3.969 0.656-1.313 0.063-3.063-0.156zM26.844 16.656q0.875 0.219 1.469 0.906 0.594 0.719 0.688 1.625 0.031 0.156 0.031 0.313 0 0.719-0.344 1.375-0.438 0.813-1.25 1.219-0.438 0.219-0.844 0.25-0.438 0.063-0.781 0.063h-12.188q-0.313 0-0.531-0.219t-0.219-0.531 0.219-0.531 0.531-0.219h12.188q0.313 0 0.531-0.031t0.406-0.125q0.406-0.188 0.594-0.563 0.219-0.406 0.188-0.844-0.063-0.469-0.344-0.781-0.281-0.344-0.719-0.469-0.438-0.094-0.844 0.063t-0.656 0.5q-0.219 0.313-0.531 0.344t-0.563-0.156-0.313-0.469 0.156-0.594q0.406-0.531 1-0.844 0.594-0.344 1.25-0.375 0.469-0.031 0.875 0.094zM21.406 24.063q0.406 0.063 0.813 0.281 0.813 0.406 1.25 1.188 0.438 0.813 0.344 1.719t-0.688 1.594-1.469 0.938q-0.375 0.094-0.719 0.094-0.5 0-1-0.188-0.875-0.313-1.406-1.063-0.219-0.313-0.188-0.563 0.063-0.281 0.281-0.469 0.281-0.188 0.594-0.156t0.531 0.344q0.25 0.344 0.656 0.5 0.438 0.156 0.875 0.031 0.406-0.094 0.688-0.438 0.313-0.344 0.344-0.781 0.063-0.438-0.156-0.813-0.219-0.406-0.594-0.594-0.188-0.094-0.406-0.125-0.25-0.031-0.531-0.031h-5.5q-0.313 0-0.531-0.219t-0.219-0.531 0.219-0.531 0.531-0.219h5.5q0.344 0 0.781 0.031zM9.438 29.031q-1.094 0.25-1.781 0.063-1.156-0.344-1.625-1.531-0.531-2.031 0.469-4.031l-0.406 0.313q-0.906 0.844-1.813 2.25-0.438 0.563-1.031 0.25-0.281-0.156-0.281-0.531v-0.063q0-0.25 0.219-0.656 0.969-1.656 2.438-2.938 1.125-0.813 1.938-0.625l0.219 0.094q0.781 0.5 0.469 1.438-0.313 0.719-0.688 1.563-0.5 1.469-0.125 2.313 0.531 0.688 1.031 0.719 0.563-0.031 1.063-0.219 0.375-0.094 0.719-0.094h0.219q0.406 0.031 0.781 0.188 0.875 0.313 1.406 1.063 0.219 0.313 0.188 0.563-0.063 0.281-0.281 0.469-0.281 0.188-0.594 0.156t-0.531-0.344q-0.25-0.344-0.656-0.5-0.438-0.156-0.875-0.031-0.25 0.063-0.469 0.125z"></path>
</svg>
