<!-- Generated by IcoMoon.io -->
<svg version="1.1" xmlns="http://www.w3.org/2000/svg" width="32" height="32" viewBox="0 0 32 32">
<path fill="#444" d="M30.719 12.813q0 0.906-0.313 1-0.438 0.219-0.875 0.875l-0.156 0.531q-0.156 0.531-0.531 2.219t-1.563 2.438q-0.313 0.188-0.594 0.25-1.125 0.219-2.938 0.25-1.313 0-2.219-0.094-0.938-0.125-1.844-0.594-0.844-0.438-1.656-2.156-0.688-1.688-0.969-2.625-0.063-0.344-1.063-0.344-1.031 0-1.094 0.344-0.281 0.938-0.969 2.656-0.813 1.688-1.688 2.125-0.875 0.469-1.781 0.563-0.938 0.125-2.25 0.125-2-0.031-2.875-0.25-0.25-0.031-0.594-0.219-1.25-0.844-1.625-2.5-0.375-1.594-0.531-2.188l-0.156-0.531q-0.438-0.688-0.906-0.875-0.188-0.094-0.188-0.969 0-0.844 0.313-0.906 1.188-0.188 2.813-0.281 1.094-0.063 2.25-0.063h1.219q1.813 0.063 3.688 0.25 1.844 0.25 3.5 0.656h1.844q1.625-0.406 3.469-0.656 1.875-0.188 3.688-0.25h1.188q1.188 0 2.281 0.063 1.656 0.094 2.844 0.281 0.281 0 0.281 0.875z"></path>
</svg>
