<!-- Generated by IcoMoon.io -->
<svg version="1.1" xmlns="http://www.w3.org/2000/svg" width="32" height="32" viewBox="0 0 32 32">
<path fill="#444" d="M24.156 8.438q0 0.25-0.156 0.438l-1.688 1.719q-0.219 0.188-0.469 0.188-0.281 0-0.469-0.219-0.156-0.156-0.156-0.406 0-0.281 0.156-0.438l1.719-1.75q0.188-0.156 0.438-0.156 0.281 0 0.469 0.156 0.156 0.188 0.156 0.469zM7.844 8.406q0-0.25 0.188-0.438 0.156-0.156 0.406-0.156 0.281 0 0.469 0.156l1.719 1.75q0.156 0.156 0.156 0.406 0 0.281-0.156 0.438-0.156 0.219-0.438 0.219t-0.469-0.188l-1.688-1.719q-0.188-0.188-0.188-0.469zM15.531 4.5q0.188-0.219 0.438-0.219 0.281 0 0.469 0.188 0.188 0.219 0.188 0.469v2.844q0 0.25-0.188 0.438t-0.438 0.188-0.438-0.156q-0.188-0.188-0.188-0.438v-2.875q0-0.25 0.156-0.438zM20.844 15.656v-0.094q-0.125-1.75-1.344-3-1.406-1.375-3.5-1.375-2.031 0-3.438 1.375-1.25 1.25-1.375 3v0.094h9.656zM9.875 15.656v-0.094q0.156-2.313 1.781-3.938 1.781-1.781 4.375-1.781t4.406 1.781q1.625 1.656 1.781 3.938v0.094h6q0.344 0 0.563 0.219 0.219 0.25 0.219 0.563t-0.219 0.531q-0.219 0.25-0.563 0.25h-24.438q-0.313 0-0.563-0.219-0.219-0.25-0.219-0.563t0.219-0.531q0.25-0.25 0.563-0.25h6.094zM18.844 24.938q0.188-0.188 0.438-0.188 0.281 0 0.469 0.188 0.156 0.156 0.188 0.406 0 0.25-0.156 0.438l-3.344 3.313q-0.188 0.188-0.469 0.188-0.25 0-0.438-0.219l-3.281-3.281q-0.188-0.188-0.188-0.438 0.031-0.25 0.219-0.438 0.156-0.156 0.438-0.156 0.25 0 0.438 0.188l2.219 2.188v-7.313q0-0.25 0.188-0.438 0.188-0.156 0.438-0.156t0.438 0.188 0.188 0.438v7.281z"></path>
</svg>
