<!-- Generated by IcoMoon.io -->
<svg version="1.1" xmlns="http://www.w3.org/2000/svg" width="32" height="32" viewBox="0 0 32 32">
<path fill="#444" d="M21.375 21.438q0.531 1.125 0.531 2.438 0 2.438-1.719 4.156-1.75 1.75-4.188 1.75-2.469 0-4.188-1.719-1.719-1.75-1.719-4.188 0-1.313 0.531-2.438 0.531-1.156 1.469-2v-9.938q0-1.625 1.125-2.75 1.156-1.156 2.781-1.156t2.75 1.125q1.156 1.156 1.156 2.781v9.938q0.938 0.844 1.469 2zM18.906 26.75q1.188-1.188 1.188-2.875 0-1.156-0.563-2.063-0.563-0.938-1.438-1.469v-10.844q0-0.844-0.594-1.469-0.625-0.625-1.5-0.625-0.844 0-1.469 0.625t-0.625 1.469v10.844q-0.875 0.531-1.438 1.438-0.563 0.938-0.563 2.094 0 1.688 1.188 2.875 1.219 1.219 2.906 1.219t2.906-1.219zM18.344 22.188q0.563 0.75 0.563 1.688 0 1.219-0.844 2.063t-2.063 0.844-2.063-0.844-0.844-2.063q0-0.938 0.531-1.688 0.563-0.75 1.469-1.094v-6.781q0-0.375 0.25-0.625 0.281-0.281 0.656-0.281t0.625 0.25q0.281 0.281 0.281 0.656v6.781q0.906 0.344 1.438 1.094zM22.5 10.781q-0.219-0.25-0.219-0.563t0.219-0.531q0.25-0.25 0.563-0.25h1.156q0.313 0 0.531 0.219 0.25 0.25 0.25 0.563t-0.219 0.531q-0.25 0.25-0.563 0.25h-1.156q-0.313 0-0.563-0.219zM22.531 13.875q-0.25-0.219-0.25-0.531t0.219-0.531q0.25-0.25 0.563-0.25h1.156q0.313 0 0.531 0.219 0.25 0.25 0.25 0.563t-0.219 0.531q-0.25 0.25-0.563 0.25h-1.156q-0.313 0-0.531-0.25zM22.531 17q-0.25-0.219-0.25-0.531t0.219-0.531q0.25-0.25 0.563-0.25h1.156q0.313 0 0.531 0.219 0.25 0.25 0.25 0.563t-0.219 0.531q-0.25 0.25-0.563 0.25h-1.156q-0.313 0-0.531-0.25z"></path>
</svg>
