<!-- Generated by IcoMoon.io -->
<svg version="1.1" xmlns="http://www.w3.org/2000/svg" width="32" height="32" viewBox="0 0 32 32">
<path fill="#444" d="M9.25 12.625q-0.625-0.031-0.625-0.875 0.063-0.813 0.188-1.406-0.969 0.031-1.625 0.625-1.063 1.031-0.875 2.594-0.969 0.219-1.438 0.75-0.531 0.594-0.531 1.406 0.094 0.781 0.594 1.344 0.719 0.594 1.469 0.594h17.031q2.875 0 3.969-3l0.125-0.906q0.031-2.281-2.125-3.469-0.906-0.438-1.906-0.469-1.969 0-3.406 1.906-0.5 0.406-0.906 0.063-0.438-0.344-0.219-0.938 0.938-1.594 3.156-2.344-0.656-1.094-2.125-2.063-1.438-0.844-2.938-0.844h-0.688q-3.844 0.344-5.531 3.25-0.719 1.438-0.813 3-0.063 0.813-0.781 0.781zM14.656 20.188h3.625l-1.906 2.906h2.531l-5.5 5.656 1.844-4.25h-2.156zM25.406 26.719q-0.25 0.281-0.594 0.281t-0.594-0.25q-0.281-0.281-0.281-0.625v-3.094q0-0.344 0.25-0.594 0.281-0.281 0.625-0.281 0.375 0 0.625 0.25 0.25 0.281 0.25 0.625v3.094q0 0.344-0.281 0.594zM7.906 26.156q-0.25 0.281-0.594 0.281-0.375 0-0.625-0.25-0.25-0.281-0.25-0.625v-2.781q0-0.375 0.25-0.625 0.25-0.281 0.625-0.281 0.344 0 0.594 0.281 0.281 0.25 0.281 0.625v2.781q0 0.344-0.281 0.594zM8.219 18.969v1.5q0 0.375-0.25 0.625-0.25 0.281-0.625 0.281-0.344 0-0.594-0.25-0.281-0.281-0.281-0.656v-1.5q-1.313-0.094-2.125-0.625-1.25-0.813-1.344-2.625v-0.063q0.031-1.969 1.969-3 0.156-1.063 0.688-1.875 1.125-1.656 3.531-1.781 0.344-0.844 0.969-1.625 0.969-1.375 3.031-2.406 1.469-0.625 3.406-0.75h0.219q3 0 5.375 2.094 0.813 0.813 1.75 2.156 1.875 0.063 3.563 1.594 1.469 1.594 1.469 3.438 0 3.531-3.25 5.063v2q0 0.406-0.281 0.656t-0.625 0.25q-0.375 0-0.625-0.25t-0.25-0.656v-1.594h-1.75v2.625q0 0.344-0.25 0.594-0.25 0.281-0.625 0.281-0.344 0-0.594-0.25-0.313-0.281-0.313-0.625v-2.625h-8.719v4.375q0 0.375-0.25 0.625-0.281 0.25-0.656 0.25-0.344 0-0.594-0.25-0.281-0.25-0.281-0.625v-4.375h-1.688z"></path>
</svg>
