<!-- Generated by IcoMoon.io -->
<svg version="1.1" xmlns="http://www.w3.org/2000/svg" width="32" height="32" viewBox="0 0 32 32">
<path fill="#444" d="M19.063 2.906q5.75 0 9.563 1.313 0.219 0.125 0.313 0.344 0.063 0.094 0.063 0.219 0 0.094-0.031 0.188-0.156 0.406-0.688 0.375-3.969-1.188-9.438-1.188-7.125 0-12.281 2.063-2.375 1.188-2.375 2.25 0 0.813 1.938 1.75 4.031 1.75 10.656 1.75 5.25 0 7.875-1.625 0.531-0.313 0.031-0.875-2.031-1.219-6.406-1.219-2.531 0-5.656 0.75-0.25 0.063-0.469-0.063-0.25-0.125-0.313-0.344-0.094-0.281 0.063-0.531 0.156-0.219 0.469-0.313 3.438-0.75 6.188-0.75 5.344 0 7.219 1.844 0.406 0.594 0.406 1.063 0 2.156-5.656 3.031-2.125 0.313-6.469 0.313-2.125 0.219-4.531 0.781-1 0.313-1.063 0.781 0.063 0.75 2.094 1.313 2.344 0.563 5.438 0.563 4.813 0.063 7.781-1.438 0.313-0.125 0.594-0.063t0.375 0.406q0.031 0.406-0.094 0.594-0.188 0.156-0.406 0.25-0.5 0.313-1.813 0.719-1.344 0.438-3.063 0.594-1.719 0.188-4.438 0.188-4.094 0.5-4.094 1.531 0 1.125 4.875 1.438h0.406q2.813 0 5.313-1 0.438-0.156 0.656-0.094 0.281 0.094 0.375 0.313 0.094 0.25 0.031 0.406-0.094 0.219-0.219 0.281-0.063 0.063-0.375 0.188-2.156 0.969-5.375 1.188-2.281 0.313-2.281 1.188 0 0.906 1.969 1.906 1.188 0.781 1.531 1.656 0.156 0.469 0.156 1.125-0.031 0.563-0.156 0.813-0.125 0.219-0.313 0.313t-0.344 0.094h-0.094q-0.281-0.031-0.469-0.25-0.125-0.25-0.063-0.688 0.031-0.219 0.031-0.5 0-0.875-1.625-1.688-1.219-0.688-1.625-1.25-0.406-0.594-0.5-1.344 0.031-1 0.719-1.531-4.406-0.813-4.406-2.563 0.188-1.063 2.5-1.875-4.469-0.781-4.781-2.625 0.063-1.656 3.969-2.188l-2.094-0.438q-5.688-1.438-5.688-3.969 0-3.313 9.469-5 3.281-0.469 6.625-0.469z"></path>
</svg>
