<!-- Generated by IcoMoon.io -->
<svg version="1.1" xmlns="http://www.w3.org/2000/svg" width="32" height="32" viewBox="0 0 32 32">
<path fill="#444" d="M15.969 13.438q-1.063 0-1.781 0.719-0.75 0.75-0.75 1.813t0.719 1.813q0.75 0.75 1.813 0.75 1.094 0 1.813-0.75 0.75-0.75 0.75-1.813t-0.719-1.781q-0.75-0.75-1.844-0.75zM10.375 15.969q-0.625-4.281 3.188-8.438 2.313-2.438 5.438-3.219 0.125-0.031 0.281-0.031t0.313 0.063q0.25 0.094 0.344 0.406 0.063 0.313-0.094 0.531t-0.469 0.313q-2.75 0.688-4.781 2.844-1.438 1.5-2.156 3.219 0.156-0.125 0.375-0.344 2.656-2.75 8.438-2.406 3.313 0.25 5.719 2.094l0.125 0.094q0.281 0.219 0.313 0.5v0.094q0 0.219-0.125 0.406-0.156 0.219-0.406 0.25-0.25 0.063-0.563-0.125-2.188-1.688-5.125-1.938-1.969-0.188-3.844 0.344 4.281 0.344 7.5 5 1.875 2.75 1.938 5.781v0.25q-0.031 0.281-0.156 0.406-0.188 0.219-0.438 0.25-0.344 0.031-0.531-0.156t-0.219-0.5q-0.063-2.813-1.719-5.25-1.094-1.688-2.594-2.875 2.438 3.563 0.75 9.156-1 3.156-3.406 5.188-0.125 0.094-0.219 0.156-0.125 0.063-0.281 0.063h-0.063q-0.313-0.031-0.5-0.25-0.188-0.25-0.125-0.594 0.031-0.156 0.188-0.313 2.156-1.813 3.063-4.625 0.625-1.938 0.594-2.781-0.063-0.875-0.125-0.781-1.156 3.781-6.563 6-3.125 1.219-6.281 0.531-0.125-0.031-0.188-0.063-0.188-0.063-0.313-0.281t-0.063-0.5q0.063-0.25 0.281-0.375t0.5-0.094q2.781 0.594 5.531-0.5 1.813-0.688 3.344-1.938-4 1.594-9.063-1.25-2.875-1.688-4.313-4.531-0.094-0.219-0.094-0.375v-0.125q0.063-0.313 0.344-0.469 0.281-0.125 0.5-0.031 0.25 0.094 0.406 0.375 1.281 2.469 3.813 3.938 1.781 1.094 3.688 1.375-3.75-2.156-4.688-7.875-0.469-3.313 0.906-6.25 0.031-0.094 0.125-0.219 0.125-0.125 0.219-0.156 0.281-0.125 0.563-0.031 0.281 0.125 0.344 0.375 0.063 0.281-0.031 0.563-1.188 2.531-0.781 5.469 0.281 1.969 1.188 3.656z"></path>
</svg>
