<!-- Generated by IcoMoon.io -->
<svg version="1.1" xmlns="http://www.w3.org/2000/svg" width="32" height="32" viewBox="0 0 32 32">
<path fill="#444" d="M9.25 12.625q-0.625-0.031-0.625-0.875 0.063-0.813 0.188-1.406-0.969 0.031-1.625 0.625-1.063 1.031-0.875 2.594-0.969 0.219-1.438 0.75-0.531 0.594-0.531 1.406 0.094 0.781 0.594 1.344 0.719 0.594 1.469 0.594h17.031q2.875 0 3.969-3l0.125-0.906q0.031-2.281-2.125-3.469-0.906-0.438-1.906-0.469-1.969 0-3.406 1.906-0.5 0.406-0.906 0.063-0.438-0.344-0.219-0.938 0.938-1.594 3.156-2.344-0.656-1.094-2.125-2.063-1.438-0.844-2.938-0.844h-0.688q-3.844 0.344-5.531 3.25-0.719 1.438-0.813 3-0.063 0.813-0.781 0.781zM6.906 18.969q-3.719-0.031-3.906-3.25v-0.063q0.031-1.969 1.969-3 0.156-1.063 0.688-1.875 1.125-1.656 3.531-1.781 0.344-0.844 0.969-1.625 0.969-1.375 3.031-2.406 1.469-0.625 3.406-0.75h0.219q3 0 5.375 2.094 0.813 0.813 1.75 2.156 1.875 0.063 3.563 1.594 1.469 1.594 1.469 3.438 0 3.75-3.656 5.25-0.781 0.188-2.219 0.219h-16.188zM14.656 20.188h3.625l-1.906 2.906h2.531l-5.5 5.656 1.844-4.25h-2.156z"></path>
</svg>
