<!-- Generated by IcoMoon.io -->
<svg version="1.1" xmlns="http://www.w3.org/2000/svg" width="32" height="32" viewBox="0 0 32 32">
<path fill="#444" d="M16.844 17.969v8.25q0 1.469-1 2.5t-2.469 1.031q-1.5 0-2.531-1.031t-1.031-2.5v-1.156q0-0.344 0.25-0.594 0.281-0.281 0.625-0.281 0.313 0 0.594 0.25 0.281 0.281 0.281 0.625v1.156q0 0.75 0.5 1.25 0.531 0.531 1.25 0.531 0.75 0 1.281-0.5 0.531-0.531 0.531-1.281v-8.188q-0.938 0.281-1.375 0.719-0.813 0.688-1.125 1.531-0.031 0.094-0.125 0.094t-0.125-0.094q-0.375-1-1.281-1.656-0.906-0.688-2.094-0.688-0.656 0-1.281 0.25-0.563 0.281-0.969 0.594-0.25 0.219-0.438 0.406l-0.406 0.406q-0.094-0.625-0.094-1.156v-0.219q0-4.188 2.906-7.094t7.094-2.906q4.25 0 7.156 2.906t2.906 7.094q0 0.25-0.031 0.563-0.063 0.531-0.219 0.969-0.625-0.969-1.594-1.656-0.531-0.156-1.094-0.156-1.188 0-2.063 0.656-0.906 0.688-1.281 1.688-0.031 0.094-0.125 0.094-0.125 0-0.156-0.094-0.313-0.844-1.094-1.563-0.563-0.469-1.375-0.75zM9.063 5.688q-0.188 0.281-0.5 0.313-0.344 0.063-0.656-0.156-0.25-0.188-0.281-0.5-0.063-0.344 0.156-0.656l1.875-2.563q0.188-0.281 0.5-0.344h0.125q0.25 0 0.5 0.188t0.313 0.531-0.156 0.625zM13.75 5.688q-0.188 0.281-0.5 0.313-0.344 0.063-0.656-0.156-0.25-0.188-0.281-0.5-0.063-0.344 0.156-0.656l1.875-2.563q0.188-0.281 0.5-0.344h0.125q0.25 0 0.5 0.188t0.313 0.531-0.156 0.625zM18.438 5.688q-0.188 0.281-0.5 0.313-0.344 0.063-0.656-0.156-0.25-0.188-0.281-0.5-0.063-0.344 0.156-0.656l1.875-2.563q0.188-0.281 0.5-0.344h0.125q0.25 0 0.5 0.188t0.313 0.531-0.156 0.625zM23.125 5.688q-0.188 0.281-0.5 0.313-0.344 0.063-0.656-0.156-0.25-0.188-0.281-0.5-0.063-0.344 0.156-0.656l1.875-2.563q0.188-0.281 0.5-0.344h0.125q0.25 0 0.5 0.188t0.313 0.531-0.156 0.625z"></path>
</svg>
