<!-- Generated by IcoMoon.io -->
<svg version="1.1" xmlns="http://www.w3.org/2000/svg" width="32" height="32" viewBox="0 0 32 32">
<path fill="#444" d="M14.906 20.938q-0.156 0.063-0.281 0.063t-0.219-0.031q-0.25-0.094-0.344-0.313-0.125-0.25-0.063-0.469l2.938-8.75q0.063-0.219 0.313-0.344 0.125-0.031 0.25-0.031 0.094 0 0.219 0.031 0.219 0.063 0.344 0.281t0.063 0.438l-2.938 8.75q-0.063 0.25-0.281 0.375zM20.969 18.438l-0.438 1.25q-0.094 0.281-0.344 0.438t-0.563 0.063q-0.281-0.094-0.406-0.344-0.125-0.281-0.031-0.563l2.25-6.906q0.094-0.25 0.344-0.375 0.156-0.063 0.313-0.063 0.188 0 0.375 0.063 0.25 0.094 0.313 0.375l2.281 6.906q0.031 0.094 0.031 0.188 0 0.188-0.094 0.375-0.125 0.25-0.406 0.313-0.281 0.094-0.531-0.031-0.281-0.156-0.344-0.438l-0.406-1.25h-2.344zM22.875 17.25l-0.781-2.375-0.75 2.375h1.531zM11.406 17.406v-4.813q0-0.25 0.156-0.438 0.188-0.219 0.438-0.219 0.281 0 0.469 0.188 0.188 0.219 0.188 0.469v7.125q-0.063 0.281-0.25 0.406-0.219 0.125-0.469 0.094-0.125-0.031-0.219-0.094-0.063-0.031-0.125-0.094-0.125-0.125-0.156-0.281l-3.281-5.031v4.875q0 0.25-0.188 0.438t-0.438 0.188-0.438-0.156q-0.188-0.188-0.188-0.438v-7q0-0.25 0.156-0.438 0.188-0.219 0.438-0.219 0.219 0 0.375 0.125 0.156 0.063 0.219 0.188z"></path>
</svg>
