<!-- Generated by IcoMoon.io -->
<svg version="1.1" xmlns="http://www.w3.org/2000/svg" width="32" height="32" viewBox="0 0 32 32">
<path fill="#444" d="M28.938 30.656q-0.156 0-0.313-0.063-0.25-0.125-0.344-0.375l-2.25-6.906q-0.094-0.281 0.031-0.531 0.125-0.281 0.406-0.375 0.313-0.094 0.563 0.063t0.344 0.438l1.594 4.875 1.594-4.875q0.063-0.281 0.313-0.406 0.281-0.156 0.563-0.063 0.281 0.063 0.406 0.313 0.094 0.188 0.094 0.375 0 0.094-0.031 0.188l-2.281 6.906q-0.063 0.281-0.313 0.375-0.188 0.063-0.375 0.063zM19.531 23.094q0-0.281 0.188-0.5 0.219-0.219 0.5-0.219 0.313 0 0.5 0.219 0.219 0.219 0.219 0.5v5.094q0.219 0.969 1.219 1.031 1.125-0.094 1.281-1.219v-4.906q0-0.281 0.188-0.5 0.219-0.219 0.5-0.219 0.313 0 0.5 0.219 0.219 0.219 0.219 0.5v5.344q0 0.219-0.125 0.594-0.563 1.438-2.594 1.625-2.406-0.094-2.594-2.25v-5.313zM4.5 16.5q-0.188-0.188-0.188-0.469 0-0.25 0.188-0.438t0.438-0.188h2.875q0.25 0 0.406 0.188 0.188 0.188 0.188 0.438t-0.156 0.438-0.406 0.188h-2.906q-0.25 0-0.438-0.156zM24.156 8.438q0 0.25-0.156 0.438l-1.688 1.719q-0.219 0.188-0.469 0.188-0.281 0-0.469-0.219-0.156-0.156-0.156-0.406 0-0.281 0.156-0.438l1.719-1.75q0.188-0.156 0.438-0.156 0.281 0 0.469 0.156 0.156 0.188 0.156 0.469zM7.844 8.406q0-0.25 0.188-0.438 0.156-0.156 0.406-0.156 0.281 0 0.469 0.156l1.719 1.75q0.156 0.156 0.156 0.406 0 0.281-0.156 0.438-0.156 0.219-0.438 0.219t-0.469-0.188l-1.688-1.719q-0.188-0.188-0.188-0.469zM15.531 4.5q0.188-0.219 0.438-0.219 0.281 0 0.469 0.188 0.188 0.219 0.188 0.469v2.844q0 0.25-0.188 0.438t-0.438 0.188-0.438-0.156q-0.188-0.188-0.188-0.438v-2.875q0-0.25 0.156-0.438zM7.844 23.594q0-0.25 0.188-0.406l1.688-1.719q0.188-0.188 0.469-0.188t0.438 0.219q0.156 0.156 0.156 0.406 0 0.281-0.156 0.438l-1.719 1.75q-0.188 0.156-0.438 0.156-0.281 0-0.438-0.156-0.188-0.219-0.188-0.5zM22.219 15.656l3.344-3.344q0.219-0.188 0.5-0.188t0.5 0.188q0.188 0.219 0.188 0.5 0 0.313-0.188 0.5l-13.938 13.938q-0.219 0.188-0.5 0.188-0.313 0-0.5-0.219-0.219-0.188-0.219-0.469 0-0.313 0.219-0.531l4.031-4q-2.344-0.125-4-1.781-1.813-1.781-1.813-4.406 0-2.594 1.781-4.375 1.813-1.813 4.406-1.813t4.406 1.781q1.656 1.688 1.781 4.031zM17.063 20.813l3.719-3.719q0.094-0.5 0.094-1.063 0-2.063-1.375-3.438-1.406-1.406-3.5-1.406-2.031 0-3.438 1.375-1.406 1.406-1.406 3.469 0 2.031 1.406 3.438 1.406 1.438 3.438 1.438 0.563 0 1.063-0.094z"></path>
</svg>
