<!-- Generated by IcoMoon.io -->
<svg version="1.1" xmlns="http://www.w3.org/2000/svg" width="32" height="32" viewBox="0 0 32 32">
<path fill="#444" d="M9.75 21.75q1.719 2.375 1.625 3 0 0.688-0.469 1.094-0.469 0.438-1.156 0.438t-1.156-0.406q-0.469-0.438-0.469-1.125-0.063-0.625 1.625-3zM21.625 22.969q2.125 2.938 2.031 3.719 0 0.813-0.563 1.344-0.625 0.531-1.469 0.531t-1.438-0.531-0.594-1.344q-0.094-0.781 2.031-3.719zM3.875 17.219q-0.375 0-0.594-0.156-0.156-0.094-0.219-0.25t-0.063-0.375v-0.781q0.031-1.969 1.969-3 0.156-1.063 0.688-1.875 1.125-1.625 3.531-1.75 0.375-0.875 1-1.656 0.969-1.375 3.031-2.406 1.469-0.625 3.375-0.75h0.219q3 0 5.375 2.094 0.844 0.813 1.75 2.156 1.938 0.094 3.594 1.594 1.469 1.594 1.469 3.438 0 5.156-3.719 6.625-0.594 0.156-1.563 0.219h-19.969q-0.313 0-0.531-0.219t-0.219-0.531 0.219-0.531 0.531-0.219h19.625q0.563-0.031 1.094-0.344 0.75-0.438 1.188-1.25 0.344-0.656 0.344-1.375 0-0.156-0.031-0.313-0.094-0.906-0.688-1.625-0.594-0.688-1.469-0.906-0.406-0.125-0.875-0.094-0.656 0.031-1.25 0.375-0.594 0.313-1 0.844-0.219 0.313-0.156 0.594t0.313 0.469 0.563 0.156 0.531-0.344q0.25-0.344 0.656-0.5t0.844-0.063q0.438 0.125 0.719 0.469 0.281 0.313 0.344 0.781 0.031 0.438-0.188 0.844-0.188 0.375-0.594 0.563-0.188 0.094-0.375 0.094h-19.469zM15.281 15.375q0.813-0.438 1.25-1.25 0.438-0.781 0.344-1.688t-0.688-1.625q-0.594-0.688-1.469-0.906-0.406-0.094-0.844-0.094-0.656 0.031-1.25 0.375-0.594 0.313-1 0.844-0.219 0.313-0.156 0.594t0.313 0.469q0.25 0.156 0.563 0.125 0.281 0 0.5-0.313 0.281-0.344 0.688-0.5t0.813-0.063q0.438 0.125 0.719 0.469t0.313 0.781q0.063 0.438-0.156 0.844-0.219 0.375-0.594 0.563-0.188 0.094-0.438 0.125-0.188 0.031-0.469 0.031h-8.656q-0.094 0.063-0.188 0.156-0.531 0.594-0.531 1.406h9.438q0.875 0 1.5-0.344z"></path>
</svg>
