<!-- Generated by IcoMoon.io -->
<svg version="1.1" xmlns="http://www.w3.org/2000/svg" width="32" height="32" viewBox="0 0 32 32">
<path fill="#444" d="M18.281 23.875q0.406 0.063 0.813 0.281 0.813 0.406 1.25 1.188 0.438 0.813 0.344 1.719t-0.688 1.594-1.469 0.938q-0.375 0.094-0.719 0.094-0.5 0-1-0.188-0.875-0.313-1.406-1.063-0.219-0.313-0.188-0.563 0.063-0.281 0.281-0.469 0.281-0.188 0.594-0.156t0.531 0.344q0.25 0.344 0.656 0.5 0.438 0.156 0.875 0.031 0.406-0.094 0.688-0.438 0.313-0.344 0.344-0.781 0.063-0.438-0.156-0.813-0.219-0.406-0.594-0.594-0.188-0.094-0.406-0.125-0.25-0.031-0.531-0.031h-13.781q-0.313 0-0.531-0.219t-0.219-0.531 0.219-0.531 0.531-0.219h13.781q0.344 0 0.781 0.031zM15.281 17.25q0.813-0.438 1.25-1.25 0.438-0.781 0.344-1.688t-0.688-1.625q-0.594-0.688-1.469-0.906-0.406-0.094-0.844-0.094-0.656 0.031-1.25 0.375-0.594 0.313-1 0.844-0.219 0.313-0.156 0.594t0.313 0.469q0.25 0.156 0.563 0.125 0.281 0 0.5-0.313 0.281-0.344 0.688-0.5t0.813-0.063q0.438 0.125 0.719 0.469t0.313 0.781q0.063 0.438-0.156 0.844-0.219 0.375-0.594 0.563-0.188 0.094-0.438 0.125-0.188 0.031-0.469 0.031h-8.656q-0.094 0.063-0.188 0.156-0.531 0.594-0.531 1.406h9.438q0.875 0 1.5-0.344zM14.469 6.406q1-0.25 2.125-0.313h0.219q3 0 5.375 2.094 0.844 0.813 1.75 2.156 1.938 0.094 3.594 1.594 1.469 1.594 1.469 3.438 0 5.156-3.719 6.625-0.594 0.156-1.563 0.219h-19.969q-0.313 0-0.531-0.219t-0.219-0.531 0.219-0.531 0.531-0.219h19.625q0.563-0.031 1.094-0.344 0.75-0.438 1.188-1.25 0.344-0.656 0.344-1.375 0-0.156-0.031-0.313-0.094-0.906-0.688-1.625-0.594-0.688-1.469-0.906-0.406-0.125-0.875-0.094-0.656 0.031-1.25 0.375-0.594 0.313-1 0.844-0.219 0.313-0.156 0.594t0.313 0.469 0.563 0.156 0.531-0.344q0.25-0.344 0.656-0.5t0.844-0.063q0.438 0.125 0.719 0.469 0.281 0.313 0.344 0.781 0.031 0.438-0.188 0.844-0.188 0.375-0.594 0.563-0.188 0.094-0.375 0.094h-19.469q-0.375 0-0.594-0.156-0.156-0.094-0.219-0.25t-0.063-0.375v-0.781q0.031-1.969 1.969-3 0.031-0.125 0.031-0.219-1.906-0.5-3.375-1.969-1.094-1.094-1.469-2.281-0.156-0.469-0.156-0.781 0-0.25 0.094-0.406 0.125-0.344 0.5-0.438 0.344-0.094 0.625 0.094l0.25 0.094q0.719 0.219 1.563 0.219 2.5 0 4.188-1.719 1.719-1.719 1.719-4.219 0-0.719-0.125-1.344l-0.063-0.281q-0.094-0.375-0.094-0.469-0.031-0.375 0.281-0.656 0.219-0.156 0.5-0.156 0.344 0 0.719 0.156 1.344 0.563 2.156 1.5 2 1.969 2.156 4.75zM5.5 12.906q0.063-0.125 0.156-0.25 1.125-1.625 3.531-1.75 0.375-0.875 1-1.656 0.938-1.344 2.938-2.344 0-2.594-1.75-4.375-0.469-0.438-0.969-0.781 0.031 0.344 0.031 0.656 0 3.313-2.25 5.563-2.281 2.281-5.563 2.281-0.438 0-0.906-0.031 0.375 0.531 0.875 1.063 1.25 1.25 2.906 1.625z"></path>
</svg>
