<!-- Generated by IcoMoon.io -->
<svg version="1.1" xmlns="http://www.w3.org/2000/svg" width="32" height="32" viewBox="0 0 32 32">
<path fill="#444" d="M23.719 16.469q0.875 0.219 1.469 0.906 0.594 0.719 0.688 1.625 0.031 0.156 0.031 0.313 0 0.719-0.344 1.375-0.438 0.813-1.25 1.219-0.438 0.219-0.844 0.25-0.438 0.063-0.781 0.063h-18.938q-0.313 0-0.531-0.219t-0.219-0.531 0.219-0.531 0.531-0.219h18.938q0.313 0 0.531-0.031t0.406-0.125q0.406-0.188 0.594-0.563 0.219-0.406 0.188-0.844-0.063-0.469-0.344-0.781-0.281-0.344-0.719-0.469-0.438-0.094-0.844 0.063t-0.656 0.5q-0.219 0.313-0.531 0.344t-0.563-0.156-0.313-0.469 0.156-0.594q0.406-0.531 1-0.844 0.594-0.344 1.25-0.375 0.469-0.031 0.875 0.094zM14.469 6.406q1-0.25 2.125-0.313h0.219q3 0 5.375 2.094 0.813 0.813 1.75 2.156 1.875 0.063 3.563 1.594 1.469 1.594 1.469 3.438 0 1.906-0.938 3.219-0.094 0.125-0.25 0.25-0.281 0.25-0.594 0.219-0.406-0.031-0.594-0.375-0.156-0.344 0.125-0.813 0.438-0.688 0.563-1 0.125-0.344 0.25-1.25 0.031-2.281-2.125-3.469-0.906-0.438-1.906-0.469-1.969 0-3.406 1.906-0.5 0.406-0.906 0.063-0.438-0.344-0.219-0.938 0.938-1.594 3.156-2.344-0.656-1.094-2.125-2.063-1.438-0.844-2.938-0.844h-0.688q-3.844 0.344-5.531 3.25-0.719 1.438-0.813 3-0.063 0.813-0.781 0.781-0.625-0.031-0.625-0.875 0.063-0.813 0.188-1.406-0.969 0.031-1.625 0.625-1.063 1.031-0.875 2.594-0.969 0.219-1.438 0.75-0.531 0.594-0.531 1.406h9.25q0.281 0 0.5-0.031 0.25-0.031 0.438-0.125 0.375-0.188 0.594-0.563 0.219-0.406 0.156-0.844-0.031-0.438-0.313-0.781t-0.719-0.469q-0.438-0.094-0.844 0.063t-0.688 0.5q-0.219 0.313-0.5 0.313-0.313 0.031-0.563-0.125-0.25-0.188-0.313-0.469t0.156-0.594q0.406-0.531 1-0.844 0.594-0.344 1.25-0.375 0.469 0 0.875 0.094 0.875 0.219 1.469 0.906 0.594 0.719 0.688 1.625t-0.344 1.688q-0.438 0.813-1.25 1.219-0.406 0.219-0.813 0.25-0.438 0.063-0.781 0.063h-9.719q-0.375 0-0.594-0.156-0.156-0.094-0.219-0.25t-0.063-0.375v-0.781q0.031-1.969 1.969-3 0.031-0.125 0.031-0.219-1.906-0.5-3.375-1.969-1.094-1.094-1.469-2.281-0.156-0.469-0.156-0.781 0-0.25 0.094-0.406 0.125-0.344 0.5-0.438 0.344-0.094 0.625 0.094l0.25 0.094q0.719 0.219 1.563 0.219 2.5 0 4.188-1.719 1.719-1.719 1.719-4.219 0-0.719-0.125-1.344l-0.063-0.281q-0.094-0.375-0.094-0.469-0.031-0.375 0.281-0.656 0.219-0.156 0.5-0.156 0.344 0 0.719 0.156 1.344 0.563 2.156 1.5 1.969 1.969 2.156 4.75zM5.5 12.906q0.063-0.125 0.156-0.25 1.125-1.656 3.531-1.781 0.344-0.844 0.969-1.625 0.969-1.344 2.969-2.375 0-2.563-1.75-4.344-0.469-0.438-0.969-0.781 0.031 0.344 0.031 0.656 0 3.313-2.25 5.563-2.281 2.281-5.563 2.281-0.438 0-0.906-0.031 0.375 0.531 0.875 1.063 1.25 1.25 2.906 1.625zM9.75 23.625q1.719 2.375 1.625 3 0 0.688-0.469 1.094-0.469 0.438-1.156 0.438t-1.156-0.406q-0.469-0.438-0.469-1.125-0.063-0.625 1.625-3zM21.625 24.844q2.125 2.938 2.031 3.719 0 0.813-0.563 1.344-0.625 0.5-1.469 0.5t-1.438-0.5q-0.594-0.531-0.594-1.344-0.094-0.781 2.031-3.719z"></path>
</svg>
