<!-- Generated by IcoMoon.io -->
<svg version="1.1" xmlns="http://www.w3.org/2000/svg" width="32" height="32" viewBox="0 0 32 32">
<path fill="#444" d="M17.75 7.906q0.875 0.219 1.469 0.906 0.594 0.719 0.688 1.625t-0.344 1.688q-0.438 0.813-1.25 1.219-0.406 0.219-0.813 0.25-0.438 0.063-0.781 0.063h-12.969q-0.313 0-0.531-0.219t-0.219-0.531 0.219-0.531 0.531-0.219h12.969q0.281 0 0.5-0.031 0.25-0.031 0.438-0.125 0.375-0.188 0.594-0.563 0.219-0.406 0.156-0.844-0.031-0.438-0.313-0.781t-0.719-0.469q-0.438-0.094-0.844 0.063t-0.688 0.5q-0.219 0.313-0.5 0.313-0.313 0.031-0.563-0.125-0.25-0.188-0.313-0.469t0.156-0.594q0.406-0.531 1-0.844 0.594-0.344 1.25-0.375 0.469 0 0.875 0.094zM26.844 11.031q0.875 0.219 1.469 0.906 0.594 0.719 0.688 1.625 0.031 0.156 0.031 0.313 0 0.719-0.344 1.375-0.438 0.813-1.25 1.219-0.438 0.219-0.844 0.25-0.438 0.063-0.781 0.063h-22.063q-0.313 0-0.531-0.219t-0.219-0.531 0.219-0.531 0.531-0.219h22.063q0.313 0 0.531-0.031t0.406-0.125q0.406-0.188 0.594-0.563 0.219-0.406 0.188-0.844-0.063-0.469-0.344-0.781-0.281-0.344-0.719-0.469-0.438-0.094-0.844 0.063t-0.656 0.5q-0.219 0.313-0.531 0.344t-0.563-0.156-0.313-0.469 0.156-0.594q0.406-0.531 1-0.844 0.594-0.344 1.25-0.375 0.469-0.031 0.875 0.094zM21.406 18.438q0.406 0.063 0.813 0.281 0.813 0.406 1.25 1.188 0.438 0.813 0.344 1.719t-0.688 1.594-1.469 0.938q-0.375 0.094-0.719 0.094-0.5 0-1-0.188-0.875-0.313-1.406-1.063-0.219-0.313-0.188-0.563 0.063-0.281 0.281-0.469 0.281-0.188 0.594-0.156t0.531 0.344q0.25 0.344 0.656 0.5 0.438 0.156 0.875 0.031 0.406-0.094 0.688-0.438 0.313-0.344 0.344-0.781 0.063-0.438-0.156-0.813-0.219-0.406-0.594-0.594-0.188-0.094-0.406-0.125-0.25-0.031-0.531-0.031h-16.875q-0.313 0-0.531-0.219t-0.219-0.531 0.219-0.531 0.531-0.219h16.875q0.344 0 0.781 0.031z"></path>
</svg>
